<svg width="134" height="54" viewBox="0 0 134 54" fill="none" xmlns="http://www.w3.org/2000/svg">
<path d="M26.6126 52.3364C19.381 51.8627 13.7936 49.0089 9.96087 43.0125C9.72253 42.5799 9.38865 42.2088 8.98526 41.9283C8.58188 41.6477 8.11989 41.4652 7.63534 41.395C3.0642 40.5208 -0.0339738 36.9006 0.000281221 32.6796C0.0383423 28.3354 2.99569 24.954 7.6734 24.0143C8.43462 23.8641 8.91039 23.6292 9.29861 22.9436C10.9115 19.947 13.274 17.4317 16.1496 15.6493C17.5236 14.8136 16.7205 13.8161 16.6178 12.9535C15.9517 7.45001 19.1488 2.72837 24.466 1.56144C31.2408 0.0710045 37.5361 6.21761 36.2154 13.1152C35.9528 14.4978 36.1659 15.218 37.3573 16.0922C44.4024 21.2568 47.3293 28.3238 45.4376 36.889C43.6868 44.8226 38.4458 49.7253 30.6509 51.7318C29.3173 52.0112 27.969 52.2131 26.6126 52.3364ZM39.58 43.8637C46.1912 36.9853 44.8553 24.5535 37.1137 18.4723C35.7092 17.367 34.9975 17.1321 33.8023 18.896C29.6156 25.058 23.0958 24.9116 18.8862 18.7188C18.8438 18.6699 18.808 18.6155 18.7796 18.557C18.1402 16.9703 17.2572 17.263 16.1839 18.1411C14.5002 19.4981 13.0116 21.086 11.7612 22.8589C11.1408 23.7408 10.9619 24.2222 12.2179 24.7845C15.7005 26.352 17.3181 29.2635 17.3409 33.0455C17.3115 33.5177 17.4053 33.9894 17.6131 34.4133C17.8209 34.8372 18.1353 35.1982 18.5246 35.4602C22.4487 38.3795 26.7763 38.7415 31.3588 37.6285C33.9584 36.9969 36.2573 37.3743 38.0386 39.6003C38.9939 40.7904 39.287 42.2269 39.5838 43.8598L39.58 43.8637ZM25.977 50.1181C29.5814 50.0218 32.7252 49.4364 35.3895 47.3259C37.8178 45.4003 37.9624 41.9342 35.6826 40.205C34.202 39.0881 32.5311 39.531 30.9363 39.8892C26.114 40.9714 21.638 40.2358 17.5655 37.3627C16.8614 36.8698 16.3894 36.5386 15.8451 37.5784C15.1272 38.8808 13.997 39.9009 12.6366 40.4746C11.3539 41.0484 11.4947 41.6877 12.1913 42.6505C15.7119 47.453 20.4391 49.8485 25.977 50.1181ZM34.221 12.2795C34.2515 8.11243 32.4702 5.34723 29.49 4.11097C26.2624 2.77844 23.0387 3.54869 20.6484 6.09052C15.7005 11.3783 20.6751 20.1322 25.2158 21.1451C25.9578 21.3263 26.7296 21.3448 27.4793 21.1994C28.2289 21.0539 28.9392 20.7478 29.5623 20.3017C30.8815 19.4012 31.9846 18.2133 32.7908 16.8252C33.5969 15.437 34.0856 13.8838 34.221 12.2795ZM15.1905 32.7374C15.211 31.8729 15.0591 31.013 14.7439 30.2092C14.4287 29.4054 13.9566 28.6742 13.3559 28.0591C12.7551 27.4441 12.038 26.9578 11.2474 26.6294C10.4568 26.3011 9.6089 26.1373 8.75434 26.1479C7.9008 26.1227 7.05092 26.2706 6.25478 26.583C5.45864 26.8953 4.73235 27.3658 4.1187 27.9666C3.50506 28.5674 3.01648 29.2865 2.68176 30.0814C2.34704 30.8762 2.17296 31.7309 2.16976 32.5949C2.16071 33.476 2.32429 34.3502 2.65105 35.167C2.9778 35.9838 3.46127 36.727 4.0735 37.3537C4.68574 37.9804 5.41462 38.4781 6.21803 38.8181C7.02145 39.1581 7.88348 39.3336 8.75434 39.3346C9.60832 39.3388 10.4545 39.1705 11.2434 38.8395C12.0323 38.5085 12.7479 38.0216 13.3484 37.4072C13.9489 36.7927 14.4222 36.0632 14.7404 35.2613C15.0587 34.4595 15.2156 33.6014 15.2019 32.7374H15.1905Z" fill="#CE828F"/>
<path d="M132.022 23.6534C132.022 26.6829 132.022 29.7124 132.022 32.738C132.026 33.4451 131.956 34.1507 131.814 34.8431C131.724 35.428 131.41 35.9536 130.938 36.3057C130.466 36.6577 129.875 36.8077 129.294 36.723C129.001 36.7151 128.713 36.6481 128.446 36.5259C128.179 36.4037 127.939 36.2288 127.741 36.0115C127.542 35.7943 127.389 35.539 127.29 35.261C127.191 34.9829 127.148 34.6876 127.164 34.3926C127.141 27.2409 127.141 20.0879 127.164 12.9336C127.164 11.4422 128.177 10.6576 129.475 10.6032C129.767 10.5716 130.062 10.6006 130.341 10.6882C130.621 10.7759 130.88 10.9204 131.103 11.113C131.325 11.3055 131.506 11.5419 131.634 11.8076C131.763 12.0733 131.835 12.3626 131.849 12.6578C132.003 14.3163 131.999 15.9942 132.018 17.6643C132.041 19.6568 132.022 21.657 132.022 23.6534Z" fill="#00ABB9"/>
<path d="M129.463 9.26714C128.57 9.26714 127.672 9.26714 126.767 9.26714C126.38 9.28524 125.998 9.17071 125.684 8.94219C125.37 8.71368 125.142 8.38465 125.037 8.00873C124.968 7.84184 124.934 7.66269 124.936 7.48204C124.937 7.3014 124.975 7.123 125.047 6.95756C125.119 6.79212 125.224 6.64306 125.354 6.51934C125.485 6.39562 125.639 6.2998 125.807 6.23764C126.74 5.8104 126.767 5.09575 126.917 4.25681C127.248 2.08566 128.508 0.652476 130.669 0.124255C131.752 -0.139855 132.846 -0.0660599 133.189 1.17681C133.466 2.26044 132.696 2.99451 131.74 3.36349C131.197 3.57711 130.561 3.63926 130.361 4.24516C130.053 5.18896 130.484 5.75991 131.459 5.79875C132.777 5.85701 134.09 6.10946 133.99 7.74074C133.882 9.41861 132.426 9.29433 131.189 9.29433C130.615 9.26326 130.041 9.27102 129.463 9.26714Z" fill="#00ABB9"/>
<path d="M71.1956 26.8773C65.1085 28.361 60.7936 26.2326 59.3412 21.1135C59.0583 20.0117 58.9946 18.8643 59.1538 17.7375C59.3129 16.6108 59.6917 15.5269 60.2684 14.5485C60.8451 13.5701 61.6082 12.7164 62.5137 12.0368C63.4193 11.3571 64.4493 10.8649 65.5445 10.5886C66.6396 10.3122 67.7782 10.2572 68.8945 10.4267C70.0109 10.5961 71.0829 10.9867 72.0488 11.5759C73.0146 12.1652 73.8553 12.9413 74.5221 13.8596C75.189 14.778 75.6689 15.8203 75.9342 16.9266C76.5429 19.6764 76.177 22.4613 76.254 25.2266C76.3234 27.6891 76.8666 28.2562 79.363 28.2717C84.1556 28.3028 84.1556 28.3028 84.1556 23.4051C84.1556 22.5001 84.0978 21.5796 84.487 20.7368C84.6866 20.2155 85.0692 19.7863 85.5621 19.5307C86.055 19.275 86.6239 19.2108 87.1606 19.3502C87.6785 19.4093 88.1555 19.6618 88.4978 20.0579C88.8401 20.454 89.0228 20.9651 89.0099 21.4903C89.0561 22.9079 89.0099 24.3333 89.0099 25.7626C89.0099 27.3939 89.7265 28.3105 91.4408 28.2833C92.7892 28.26 94.1376 28.2833 95.4822 28.2833C97.0849 28.2833 97.8284 27.4561 97.8477 25.9025C97.8477 24.547 97.8477 23.1837 97.8477 21.8321C97.8477 20.3872 98.5219 19.4784 99.9666 19.3385C101.508 19.1909 102.467 19.9833 102.613 21.5019C102.76 23.0206 102.671 24.6091 102.744 26.1433C102.829 27.9299 105.306 29.1767 106.763 28.1979C107.148 27.9377 107.04 27.5221 107.09 27.1492C107.699 22.6011 111.624 19.1521 115.912 19.3813C120.374 19.6337 123.957 23.2652 124.061 27.6114C124.18 32.478 120.979 36.3115 116.267 36.7504C115.049 36.864 113.821 36.703 112.672 36.2791C111.523 35.8553 110.483 35.1791 109.625 34.2996C109.27 33.9394 108.844 33.6595 108.373 33.4787C107.903 33.2978 107.4 33.2202 106.897 33.2509C97.7899 33.282 88.6824 33.2509 79.5749 33.2898C78.2952 33.282 77.0202 33.1335 75.7724 32.847C72.9832 32.2217 71.5346 30.3224 71.1956 26.8773ZM67.5356 22.5118C68.5027 22.5433 69.4429 22.1883 70.1515 21.5241C70.8602 20.8599 71.2797 19.9403 71.3189 18.9657C71.3651 16.9538 69.5313 15.0545 67.5665 15.0817C66.6 15.114 65.684 15.5247 65.0129 16.2267C64.3418 16.9286 63.9685 17.8665 63.972 18.8414C63.9566 21.0514 65.3705 22.5118 67.5356 22.5118ZM115.693 31.7634C116.662 31.7486 117.588 31.3562 118.277 30.6684C118.966 29.9806 119.364 29.0507 119.387 28.0736C119.352 27.0972 118.949 26.1712 118.259 25.4847C117.57 24.7982 116.646 24.4031 115.677 24.3799C113.659 24.3528 111.825 26.2093 111.894 28.1862C111.937 29.164 112.357 30.0861 113.064 30.7564C113.772 31.4267 114.711 31.7922 115.681 31.775L115.693 31.7634Z" fill="#00ABB9"/>
<path d="M73.2949 48.014C73.2949 46.7866 73.2949 45.5593 73.2949 44.332C73.2949 43.594 73.5068 42.9298 74.2426 42.5725C74.3964 42.4835 74.5665 42.4269 74.7427 42.4061C74.9188 42.3853 75.0973 42.4008 75.2674 42.4517C75.4374 42.5025 75.5954 42.5876 75.7318 42.7019C75.8682 42.8161 75.9802 42.9571 76.061 43.1163C76.4771 43.796 76.7429 43.5047 77.2168 43.2134C78.804 42.1958 80.4414 41.955 81.994 43.2794C82.5757 43.7765 82.9648 43.5241 83.5119 43.2211C87.2258 41.1626 89.7723 42.724 89.78 47.0235C89.78 48.6393 89.78 50.255 89.78 51.8708C89.78 52.9388 89.31 53.6302 88.1928 53.6224C87.0755 53.6147 86.6517 52.9388 86.7018 51.8397C86.7519 50.356 86.7211 48.8684 86.7018 47.3809C86.7018 46.2157 86.4745 44.9883 85.0452 45.0505C83.6776 45.0893 83.1459 46.1458 83.1767 47.4974C83.2075 48.9189 83.2075 50.3405 83.1767 51.7698C83.1459 52.7369 82.8454 53.5836 81.6781 53.6535C80.4029 53.7273 80.0022 52.8767 79.9675 51.8086C79.9097 50.1307 79.9367 48.4529 79.9059 46.7594C79.9059 45.8351 79.5784 45.0272 78.5267 45.0233C77.5558 45.0233 76.7391 45.5321 76.6543 46.5769C76.531 48.1849 76.558 49.8006 76.5041 51.4124C76.4694 52.4922 76.3577 53.6069 74.9438 53.6147C73.4259 53.6147 73.291 52.4767 73.291 51.2843C73.291 50.2123 73.2949 49.1131 73.2949 48.014Z" fill="#00ABB9"/>
<path d="M72.0884 51.6882C72.1578 52.7602 71.8765 53.3389 71.0405 53.5331C70.1236 53.7467 69.4456 53.5331 68.9948 52.6009C68.6404 51.8785 68.7598 50.659 67.8853 50.4997C66.456 50.2589 64.9573 50.3638 63.4933 50.422C62.6419 50.4531 62.6727 51.3464 62.5225 51.8902C62.1372 53.2768 61.332 53.937 59.9952 53.4438C58.6584 52.9505 58.9781 51.8902 59.3711 50.8415C60.74 47.232 62.0897 43.6225 63.4201 40.013C63.8054 38.9293 64.4719 38.3273 65.697 38.3623C66.7642 38.3895 67.5539 38.708 67.9392 39.7838C69.276 43.5241 70.636 47.2644 71.9651 51.0046C72.0355 51.2261 72.0769 51.4559 72.0884 51.6882ZM65.7664 42.7085C64.8649 44.0795 64.703 45.5904 64.1406 46.9381C64.0057 47.2605 64.052 47.645 64.4603 47.6838C65.2809 47.7654 66.221 48.0412 66.8913 47.5324C67.4885 47.0779 66.9144 46.3672 66.7411 45.7651C66.4328 44.7864 66.1208 43.8154 65.7664 42.7085Z" fill="#00ABB9"/>
<path d="M124.891 43.5427C126.216 42.8164 127.202 42.2999 128.308 42.3387C130.234 42.4125 131.452 43.5039 131.825 45.5158C132.211 47.6287 132.01 49.7649 131.968 51.8894C131.968 52.8682 131.544 53.6217 130.327 53.5712C129.109 53.5207 128.809 52.74 128.786 51.769C128.736 50.2154 128.74 48.6618 128.786 47.1082C128.813 45.9974 128.454 45.1196 127.291 45.0109C126.127 44.9021 125.365 45.5818 125.083 46.7354C124.721 48.3317 124.96 49.9552 124.929 51.5631C124.929 52.6235 124.798 53.5867 123.488 53.6139C122.109 53.6372 121.824 52.6545 121.82 51.5127C121.82 47.8928 121.82 44.2729 121.82 40.6569C121.82 39.5267 122.044 38.4741 123.361 38.4275C124.756 38.377 124.952 39.4257 124.902 40.5715C124.864 41.4609 124.891 42.3465 124.891 43.5427Z" fill="#00ABB9"/>
<path d="M109.415 50.4767C109.272 48.6202 110.421 47.7579 111.954 47.3695C113.015 47.1345 114.091 46.9775 115.175 46.8996C115.806 46.8258 116.33 46.6471 116.33 45.8975C116.33 45.1479 115.764 44.9887 115.148 44.8993C114.64 44.8178 114.121 44.8623 113.634 45.0287C113.147 45.1952 112.708 45.4787 112.355 45.8548C111.742 46.4529 111.006 46.6898 110.332 45.9635C109.561 45.1401 110.051 44.4099 110.656 43.7652C112.293 42.0524 116.743 41.8931 118.538 43.4467C118.849 43.7225 119.093 44.0657 119.253 44.4505C119.413 44.8353 119.485 45.2517 119.463 45.6684C119.524 47.7851 119.162 49.9407 119.775 52.0264C119.87 52.3077 119.851 52.6154 119.723 52.8829C119.594 53.1504 119.367 53.3562 119.089 53.4557C118.453 53.7431 117.629 53.8014 117.301 53.281C116.569 52.1158 115.953 52.71 115.159 53.1101C113.352 54.0228 111.307 53.7664 110.151 52.6051C109.873 52.3323 109.662 51.9979 109.534 51.6285C109.406 51.259 109.365 50.8647 109.415 50.4767ZM114.038 51.5487C115.125 51.3895 116.165 51.0282 116.35 49.6067C116.454 48.8804 115.964 48.6474 115.417 48.8299C114.393 49.2183 112.798 48.6396 112.536 50.333C112.405 51.2535 113.171 51.4904 114.034 51.5603L114.038 51.5487Z" fill="#00ABB9"/>
<path d="M97.4958 48.0526C97.4958 46.6971 97.515 45.3338 97.4958 43.9861C97.4582 43.663 97.5309 43.3366 97.7017 43.0606C97.8725 42.7846 98.1314 42.5755 98.4358 42.4675C98.7017 42.3384 99.0074 42.3202 99.2866 42.4169C99.5657 42.5136 99.7957 42.7174 99.9268 42.984C100.37 43.9395 100.728 43.5006 101.31 43.151C104.523 41.2091 107.474 42.8792 107.512 46.5922C107.532 48.208 107.493 49.8237 107.512 51.4356C107.536 52.5619 107.412 53.5951 105.995 53.6184C104.577 53.6417 104.376 52.6823 104.407 51.5171C104.45 50.0956 104.407 48.6741 104.407 47.2448C104.407 46.0019 103.995 44.9532 102.62 45.0154C101.337 45.0736 100.543 45.9126 100.551 47.3457C100.551 48.8294 100.551 50.317 100.551 51.8007C100.551 52.9659 100.073 53.6883 98.8596 53.63C97.7038 53.5756 97.4226 52.7911 97.465 51.7463C97.5305 50.5073 97.4958 49.28 97.4958 48.0526Z" fill="#00ABB9"/>
<path d="M92.1094 48.0679C92.1094 46.7124 92.1094 45.3491 92.1094 44.0092C92.1094 42.9721 92.6295 42.3818 93.5926 42.3895C93.803 42.3734 94.0143 42.4031 94.2122 42.4767C94.4102 42.5503 94.59 42.6661 94.7396 42.8161C94.8891 42.9661 95.0048 43.1469 95.0788 43.3461C95.1528 43.5453 95.1833 43.7582 95.1683 43.9703C95.1683 46.6891 95.1953 49.3846 95.1683 52.0878C95.1683 53.0782 94.5635 53.5909 93.5425 53.5599C92.5216 53.5288 92.0978 52.9423 92.1209 51.9325C92.1325 50.643 92.1094 49.3535 92.1094 48.0679Z" fill="#00ABB9"/>
<path d="M99.7311 40.9097C99.0286 40.8788 98.3648 40.5762 97.8777 40.0649C97.3906 39.5535 97.1175 38.8727 97.1152 38.1637C97.1181 37.4548 97.3856 36.773 97.8647 36.254C98.3438 35.7351 98.9991 35.4171 99.7003 35.3634C101.114 35.3168 102.528 36.7694 102.482 38.2259C102.433 38.9367 102.125 39.6041 101.617 40.0996C101.109 40.595 100.437 40.8836 99.7311 40.9097Z" fill="#00ABB9"/>
<path d="M83.8302 14.1953C83.831 14.9078 83.5639 15.594 83.0828 16.1159C82.6017 16.6377 81.9422 16.9562 81.2374 17.0073C79.7965 17.0772 78.3441 15.6907 78.3595 14.2575C78.4013 13.5526 78.7025 12.8889 79.2041 12.3961C79.7057 11.9033 80.3717 11.6169 81.0717 11.5931C81.778 11.5761 82.4626 11.8393 82.9784 12.3259C83.4942 12.8125 83.8001 13.4838 83.8302 14.1953Z" fill="#00ABB9"/>
<path d="M96.3919 38.0824C96.4109 38.7907 96.1599 39.4795 95.6905 40.0069C95.2211 40.5343 94.569 40.8603 93.8684 40.9177C93.1309 40.8992 92.4273 40.601 91.8982 40.0827C91.369 39.5644 91.0532 38.8639 91.0137 38.1212C91.0667 37.412 91.3697 36.7453 91.8678 36.2417C92.366 35.738 93.0264 35.4307 93.7297 35.3752C95.0897 35.3286 96.3649 36.6336 96.3919 38.0824Z" fill="#00ABB9"/>
<path d="M67.7877 3.29785C69.1322 3.33669 70.4845 4.75823 70.4306 6.08655C70.3688 6.7959 70.0577 7.45967 69.5533 7.95818C69.049 8.45669 68.3845 8.75713 67.6798 8.80533C66.2736 8.80533 64.8713 7.31 64.9483 5.88846C65.028 5.18232 65.3602 4.52966 65.8829 4.05277C66.4056 3.57588 67.0828 3.30748 67.7877 3.29785Z" fill="#00ABB9"/>
<path d="M61.6852 3.30089C62.3897 3.29462 63.0682 3.56895 63.5732 4.06423C64.0782 4.55951 64.3689 5.23572 64.382 5.94588C64.4129 7.42955 63.0452 8.84721 61.6275 8.79672C60.9281 8.72799 60.277 8.40669 59.7941 7.89205C59.3112 7.37742 59.0292 6.70415 59 5.99637C59.0061 5.28136 59.2913 4.59755 59.7939 4.09303C60.2965 3.58852 60.976 3.30392 61.6852 3.30089Z" fill="#00ABB9"/>
</svg>
