<svg width="18" height="19" viewBox="0 0 18 19" fill="none" xmlns="http://www.w3.org/2000/svg">
<path d="M6 4.64258C5.6925 4.64258 5.4375 4.38758 5.4375 4.08008V1.83008C5.4375 1.52258 5.6925 1.26758 6 1.26758C6.3075 1.26758 6.5625 1.52258 6.5625 1.83008V4.08008C6.5625 4.38758 6.3075 4.64258 6 4.64258Z" fill="#969595"/>
<path d="M12 4.64258C11.6925 4.64258 11.4375 4.38758 11.4375 4.08008V1.83008C11.4375 1.52258 11.6925 1.26758 12 1.26758C12.3075 1.26758 12.5625 1.52258 12.5625 1.83008V4.08008C12.5625 4.38758 12.3075 4.64258 12 4.64258Z" fill="#969595"/>
<path d="M15.375 7.70996H2.625C2.3175 7.70996 2.0625 7.45496 2.0625 7.14746C2.0625 6.83996 2.3175 6.58496 2.625 6.58496H15.375C15.6825 6.58496 15.9375 6.83996 15.9375 7.14746C15.9375 7.45496 15.6825 7.70996 15.375 7.70996Z" fill="#969595"/>
<path d="M12 17.3926H6C3.2625 17.3926 1.6875 15.8176 1.6875 13.0801V6.70508C1.6875 3.96758 3.2625 2.39258 6 2.39258H12C14.7375 2.39258 16.3125 3.96758 16.3125 6.70508V13.0801C16.3125 15.8176 14.7375 17.3926 12 17.3926ZM6 3.51758C3.855 3.51758 2.8125 4.56008 2.8125 6.70508V13.0801C2.8125 15.2251 3.855 16.2676 6 16.2676H12C14.145 16.2676 15.1875 15.2251 15.1875 13.0801V6.70508C15.1875 4.56008 14.145 3.51758 12 3.51758H6Z" fill="#969595"/>
<path d="M6.375 11.2051C6.2775 11.2051 6.18 11.1826 6.09 11.1451C6 11.1076 5.91751 11.0551 5.84251 10.9876C5.77501 10.9126 5.72249 10.8301 5.68499 10.7401C5.64749 10.6501 5.625 10.5526 5.625 10.4551C5.625 10.2601 5.70751 10.0651 5.84251 9.92259C5.91751 9.85509 6 9.80258 6.09 9.76508C6.225 9.70508 6.37501 9.69008 6.52501 9.72008C6.57001 9.72758 6.615 9.74258 6.66 9.76508C6.705 9.78008 6.75 9.8026 6.795 9.8326C6.8325 9.8626 6.86999 9.89259 6.90749 9.92259C6.93749 9.96009 6.97499 9.99759 6.99749 10.0351C7.02749 10.0801 7.05001 10.1251 7.06501 10.1701C7.08751 10.2151 7.10251 10.2601 7.11001 10.3051C7.11751 10.3576 7.125 10.4026 7.125 10.4551C7.125 10.6501 7.04249 10.8451 6.90749 10.9876C6.76499 11.1226 6.57 11.2051 6.375 11.2051Z" fill="#969595"/>
<path d="M9 11.2052C8.805 11.2052 8.61001 11.1227 8.46751 10.9877C8.43751 10.9502 8.40751 10.9127 8.37751 10.8752C8.34751 10.8302 8.32499 10.7852 8.30999 10.7402C8.28749 10.6952 8.27249 10.6502 8.26499 10.6052C8.25749 10.5527 8.25 10.5077 8.25 10.4552C8.25 10.3577 8.27249 10.2602 8.30999 10.1702C8.34749 10.0802 8.40001 9.99773 8.46751 9.92273C8.67751 9.71273 9.015 9.64522 9.285 9.76522C9.3825 9.80272 9.45749 9.85523 9.53249 9.92273C9.66749 10.0652 9.75 10.2602 9.75 10.4552C9.75 10.5077 9.74251 10.5527 9.73501 10.6052C9.72751 10.6502 9.71251 10.6952 9.69001 10.7402C9.67501 10.7852 9.65249 10.8302 9.62249 10.8752C9.59249 10.9127 9.56249 10.9502 9.53249 10.9877C9.45749 11.0552 9.3825 11.1077 9.285 11.1452C9.195 11.1827 9.0975 11.2052 9 11.2052Z" fill="#969595"/>
<path d="M6.375 13.8302C6.2775 13.8302 6.18 13.8077 6.09 13.7702C6 13.7327 5.91751 13.6802 5.84251 13.6127C5.77501 13.5377 5.72249 13.4627 5.68499 13.3652C5.64749 13.2752 5.625 13.1777 5.625 13.0802C5.625 12.8852 5.70751 12.6902 5.84251 12.5477C5.91751 12.4802 6 12.4277 6.09 12.3902C6.3675 12.2702 6.69749 12.3377 6.90749 12.5477C6.93749 12.5852 6.97499 12.6227 6.99749 12.6602C7.02749 12.7052 7.05001 12.7502 7.06501 12.7952C7.08751 12.8402 7.10251 12.8852 7.11001 12.9377C7.11751 12.9827 7.125 13.0352 7.125 13.0802C7.125 13.2752 7.04249 13.4702 6.90749 13.6127C6.76499 13.7477 6.57 13.8302 6.375 13.8302Z" fill="#969595"/>
</svg>
