<svg width="21" height="21" viewBox="0 0 21 21" fill="none" xmlns="http://www.w3.org/2000/svg">
<path d="M15.4337 9.11393C15.0753 9.11393 14.792 8.82227 14.792 8.47227C14.792 8.16393 14.4837 7.52227 13.967 6.96393C13.4587 6.42227 12.9003 6.1056 12.4337 6.1056C12.0753 6.1056 11.792 5.81393 11.792 5.46393C11.792 5.11393 12.0837 4.82227 12.4337 4.82227C13.267 4.82227 14.142 5.27227 14.9087 6.0806C15.6253 6.83893 16.0837 7.7806 16.0837 8.46393C16.0837 8.82227 15.792 9.11393 15.4337 9.11393Z" fill="#00ABB9"/>
<path d="M18.4415 9.11393C18.0831 9.11393 17.7998 8.82227 17.7998 8.47227C17.7998 5.51393 15.3915 3.11393 12.4415 3.11393C12.0831 3.11393 11.7998 2.82227 11.7998 2.47227C11.7998 2.12227 12.0831 1.82227 12.4331 1.82227C16.0998 1.82227 19.0831 4.8056 19.0831 8.47227C19.0831 8.82227 18.7915 9.11393 18.4415 9.11393Z" fill="#00ABB9"/>
<path d="M9.95866 12.6139L8.41699 14.1556C8.09199 14.4806 7.57533 14.4806 7.24199 14.1639C7.15033 14.0723 7.05866 13.9889 6.96699 13.8973C6.10866 13.0306 5.33366 12.1223 4.64199 11.1723C3.95866 10.2223 3.40866 9.27227 3.00866 8.3306C2.61699 7.3806 2.41699 6.47227 2.41699 5.6056C2.41699 5.03893 2.51699 4.49727 2.71699 3.99727C2.91699 3.48893 3.23366 3.02227 3.67533 2.6056C4.20866 2.0806 4.79199 1.82227 5.40866 1.82227C5.64199 1.82227 5.87533 1.87227 6.08366 1.97227C6.30033 2.07227 6.49199 2.22227 6.64199 2.43893L8.57533 5.16393C8.72533 5.37227 8.83366 5.56393 8.90866 5.74727C8.98366 5.92227 9.02533 6.09727 9.02533 6.2556C9.02533 6.4556 8.96699 6.6556 8.85033 6.84727C8.74199 7.03893 8.58366 7.23893 8.38366 7.43893L7.75033 8.09727C7.65866 8.18893 7.61699 8.29727 7.61699 8.4306C7.61699 8.49727 7.62533 8.5556 7.64199 8.62227C7.66699 8.68893 7.69199 8.73893 7.70866 8.78893C7.85866 9.06393 8.11699 9.42227 8.48366 9.8556C8.85866 10.2889 9.25866 10.7306 9.69199 11.1723C9.77532 11.2556 9.86699 11.3389 9.95033 11.4223C10.2837 11.7473 10.292 12.2806 9.95866 12.6139Z" fill="#00ABB9"/>
<path d="M19.0583 15.4305C19.0583 15.6638 19.0167 15.9055 18.9333 16.1388C18.9083 16.2055 18.8833 16.2721 18.85 16.3388C18.7083 16.6388 18.525 16.9221 18.2833 17.1888C17.875 17.6388 17.425 17.9638 16.9167 18.1721C16.9083 18.1721 16.9 18.1805 16.8917 18.1805C16.4 18.3805 15.8667 18.4888 15.2917 18.4888C14.4417 18.4888 13.5333 18.2888 12.575 17.8805C11.6167 17.4721 10.6583 16.9221 9.70833 16.2305C9.38333 15.9888 9.05833 15.7471 8.75 15.4888L11.475 12.7638C11.7083 12.9388 11.9167 13.0721 12.0917 13.1638C12.1333 13.1805 12.1833 13.2055 12.2417 13.2305C12.3083 13.2555 12.375 13.2638 12.45 13.2638C12.5917 13.2638 12.7 13.2138 12.7917 13.1221L13.425 12.4971C13.6333 12.2888 13.8333 12.1305 14.025 12.0305C14.2167 11.9138 14.4083 11.8555 14.6167 11.8555C14.775 11.8555 14.9417 11.8888 15.125 11.9638C15.3083 12.0388 15.5 12.1471 15.7083 12.2888L18.4667 14.2471C18.6833 14.3971 18.8333 14.5721 18.925 14.7805C19.0083 14.9888 19.0583 15.1971 19.0583 15.4305Z" fill="#00ABB9"/>
</svg>
