<svg width="25" height="24" viewBox="0 0 25 24" fill="none" xmlns="http://www.w3.org/2000/svg">
<path d="M22.22 18.33C22.22 18.69 22.14 19.06 21.97 19.42C21.8 19.78 21.58 20.12 21.29 20.44C20.8 20.98 20.26 21.37 19.65 21.62C19.05 21.87 18.4 22 17.7 22C16.68 22 15.59 21.76 14.44 21.27C13.29 20.78 12.14 20.12 11 19.29C9.85 18.45 8.76 17.52 7.72 16.49C6.69 15.45 5.76 14.36 4.93 13.22C4.11 12.08 3.45 10.94 2.97 9.81C2.49 8.67 2.25 7.58 2.25 6.54C2.25 5.86 2.37 5.21 2.61 4.61C2.85 4 3.23 3.44 3.76 2.94C4.4 2.31 5.1 2 5.84 2C6.12 2 6.4 2.06 6.65 2.18C6.91 2.3 7.14 2.48 7.32 2.74L9.64 6.01C9.82 6.26 9.95 6.49 10.04 6.71C10.13 6.92 10.18 7.13 10.18 7.32C10.18 7.56 10.11 7.8 9.97 8.03C9.84 8.26 9.65 8.5 9.41 8.74L8.65 9.53C8.54 9.64 8.49 9.77 8.49 9.93C8.49 10.01 8.5 10.08 8.52 10.16C8.55 10.24 8.58 10.3 8.6 10.36C8.78 10.69 9.09 11.12 9.53 11.64C9.98 12.16 10.46 12.69 10.98 13.22C11.52 13.75 12.04 14.24 12.57 14.69C13.09 15.13 13.52 15.43 13.86 15.61C13.91 15.63 13.97 15.66 14.04 15.69C14.12 15.72 14.2 15.73 14.29 15.73C14.46 15.73 14.59 15.67 14.7 15.56L15.46 14.81C15.71 14.56 15.95 14.37 16.18 14.25C16.41 14.11 16.64 14.04 16.89 14.04C17.08 14.04 17.28 14.08 17.5 14.17C17.72 14.26 17.95 14.39 18.2 14.56L21.51 16.91C21.77 17.09 21.95 17.3 22.06 17.55C22.16 17.8 22.22 18.05 22.22 18.33Z" stroke="#00ABB9" stroke-width="1.5" stroke-miterlimit="10"/>
<path d="M18.75 9C18.75 8.4 18.28 7.48 17.58 6.73C16.94 6.04 16.09 5.5 15.25 5.5" stroke="#00ABB9" stroke-width="1.5" stroke-linecap="round" stroke-linejoin="round"/>
<path d="M22.25 9C22.25 5.13 19.12 2 15.25 2" stroke="#00ABB9" stroke-width="1.5" stroke-linecap="round" stroke-linejoin="round"/>
</svg>
