<svg width="20" height="20" viewBox="0 0 20 20" fill="none" xmlns="http://www.w3.org/2000/svg">
<path d="M10.0002 18.5418C9.31692 18.5418 8.63358 18.3251 8.06691 17.9001L3.72525 14.6501C2.91692 14.0418 2.43359 13.0751 2.43359 12.0668V1.4668H17.5669V12.0668C17.5669 13.0751 17.0836 14.0418 16.2752 14.6501L11.9336 17.9001C11.3669 18.3251 10.6836 18.5418 10.0002 18.5418ZM3.68359 2.70847V12.0585C3.68359 12.6751 3.98358 13.2668 4.47525 13.6418L8.81691 16.8918C9.5169 17.4168 10.4919 17.4168 11.1919 16.8918L15.5336 13.6418C16.0253 13.2668 16.3252 12.6751 16.3252 12.0585V2.70847H3.68359Z" fill="#00ABB9"/>
<path d="M18.3337 2.7085H1.66699C1.32533 2.7085 1.04199 2.42516 1.04199 2.0835C1.04199 1.74183 1.32533 1.4585 1.66699 1.4585H18.3337C18.6753 1.4585 18.9587 1.74183 18.9587 2.0835C18.9587 2.42516 18.6753 2.7085 18.3337 2.7085Z" fill="#00ABB9"/>
<path d="M13.3337 7.2915H6.66699C6.32533 7.2915 6.04199 7.00817 6.04199 6.6665C6.04199 6.32484 6.32533 6.0415 6.66699 6.0415H13.3337C13.6753 6.0415 13.9587 6.32484 13.9587 6.6665C13.9587 7.00817 13.6753 7.2915 13.3337 7.2915Z" fill="#00ABB9"/>
<path d="M13.3337 11.4585H6.66699C6.32533 11.4585 6.04199 11.1752 6.04199 10.8335C6.04199 10.4918 6.32533 10.2085 6.66699 10.2085H13.3337C13.6753 10.2085 13.9587 10.4918 13.9587 10.8335C13.9587 11.1752 13.6753 11.4585 13.3337 11.4585Z" fill="#00ABB9"/>
</svg>
