<svg width="58" height="59" viewBox="0 0 58 59" fill="none" xmlns="http://www.w3.org/2000/svg">
<g clip-path="url(#clip0_17231_17946)">
<path d="M28.7693 58.7149C44.7304 58.7149 57.6695 45.7758 57.6695 29.8147C57.6695 13.8536 44.7304 0.914551 28.7693 0.914551C12.8082 0.914551 -0.130859 13.8536 -0.130859 29.8147C-0.130859 45.7758 12.8082 58.7149 28.7693 58.7149Z" fill="white"/>
<mask id="mask0_17231_17946" style="mask-type:luminance" maskUnits="userSpaceOnUse" x="-1" y="0" width="59" height="59">
<path d="M49.3065 50.3066C60.5927 39.0204 60.5927 20.7218 49.3065 9.43559C38.0203 -1.85063 19.7217 -1.85063 8.43551 9.43559C-2.85071 20.7218 -2.85071 39.0204 8.43551 50.3066C19.7217 61.5928 38.0203 61.5928 49.3065 50.3066Z" fill="white"/>
</mask>
<g mask="url(#mask0_17231_17946)">
<path d="M44.4118 83.8207C52.1098 76.1227 52.1098 63.6419 44.4118 55.9439C36.7138 48.246 24.233 48.246 16.5351 55.9439C8.8371 63.6419 8.8371 76.1227 16.5351 83.8207C24.233 91.5186 36.7139 91.5186 44.4118 83.8207Z" fill="#FFB199"/>
<path d="M35.2476 44.5229H25.4717V51.3128H35.2476V44.5229Z" fill="#FFB199"/>
<g opacity="0.5">
<path d="M35.2476 44.5229H25.4717V51.3128H35.2476V44.5229Z" fill="#FF8255"/>
</g>
<path d="M44.8535 84.2625C52.7954 76.3206 52.7954 63.4441 44.8535 55.5021C36.9115 47.5602 24.0351 47.5602 16.0931 55.5021C8.15113 63.4441 8.15112 76.3206 16.0931 84.2625C24.035 92.2045 36.9115 92.2045 44.8535 84.2625Z" fill="#F74141"/>
<path d="M35.944 47.2832H24.583V54.5247H35.944V47.2832Z" fill="#F74141"/>
<path d="M30.401 18.1507C33.9427 18.1507 36.8138 15.2796 36.8138 11.738C36.8138 8.19629 33.9427 5.3252 30.401 5.3252C26.8594 5.3252 23.9883 8.19629 23.9883 11.738C23.9883 15.2796 26.8594 18.1507 30.401 18.1507Z" fill="#ED4F4F"/>
<path d="M47.8037 30.1276C47.6893 25.5533 45.7918 21.2048 42.5161 18.0099C39.2404 14.8151 34.8458 13.0269 30.27 13.0269C25.6943 13.0269 21.2997 14.8151 18.0239 18.0099C14.7482 21.2048 12.8507 25.5533 12.7363 30.1276V32.1205H47.8147V30.1276H47.8037Z" fill="#FF6757"/>
<path d="M15.1174 37.2988C17.372 37.2988 19.1996 35.4711 19.1996 33.2165C19.1996 30.962 17.372 29.1343 15.1174 29.1343C12.8628 29.1343 11.0352 30.962 11.0352 33.2165C11.0352 35.4711 12.8628 37.2988 15.1174 37.2988Z" fill="#FFB199"/>
<path opacity="0.5" d="M15.1174 37.2988C17.372 37.2988 19.1996 35.4711 19.1996 33.2165C19.1996 30.962 17.372 29.1343 15.1174 29.1343C12.8628 29.1343 11.0352 30.962 11.0352 33.2165C11.0352 35.4711 12.8628 37.2988 15.1174 37.2988Z" fill="#FF8255"/>
<path d="M45.8576 37.2988C48.1122 37.2988 49.9399 35.4711 49.9399 33.2165C49.9399 30.962 48.1122 29.1343 45.8576 29.1343C43.6031 29.1343 41.7754 30.962 41.7754 33.2165C41.7754 35.4711 43.6031 37.2988 45.8576 37.2988Z" fill="#FFB199"/>
<path opacity="0.5" d="M45.8576 37.2988C48.1122 37.2988 49.9399 35.4711 49.9399 33.2165C49.9399 30.962 48.1122 29.1343 45.8576 29.1343C43.6031 29.1343 41.7754 30.962 41.7754 33.2165C41.7754 35.4711 43.6031 37.2988 45.8576 37.2988Z" fill="#FF8255"/>
<path d="M41.1797 42.7576C47.1541 36.7832 47.1541 27.0967 41.1797 21.1222C35.2052 15.1478 25.5187 15.1478 19.5443 21.1222C13.5698 27.0967 13.5698 36.7832 19.5443 42.7576C25.5187 48.7321 35.2052 48.7321 41.1797 42.7576Z" fill="#FFB199"/>
<path d="M43.2638 27.2953C43.2194 23.8785 41.831 20.6167 39.3991 18.2162C36.9672 15.8157 33.6877 14.4697 30.2706 14.4697C26.8535 14.4697 23.5739 15.8157 21.1421 18.2162C18.7102 20.6167 17.3217 23.8785 17.2773 27.2953V28.773H43.266V27.2953H43.2638Z" fill="#FF6757"/>
<path d="M20.5391 35.7422C21.3891 35.7422 22.0781 35.0531 22.0781 34.2031C22.0781 33.3531 21.3891 32.6641 20.5391 32.6641C19.6891 32.6641 19 33.3531 19 34.2031C19 35.0531 19.6891 35.7422 20.5391 35.7422Z" fill="#001433"/>
<path d="M38.6436 34.2036C38.6436 34.5072 38.7336 34.8039 38.9022 35.0562C39.0708 35.3086 39.3105 35.5053 39.5909 35.6215C39.8714 35.7376 40.1799 35.768 40.4776 35.7088C40.7753 35.6496 41.0488 35.5034 41.2634 35.2888C41.478 35.0742 41.6242 34.8007 41.6834 34.503C41.7426 34.2053 41.7122 33.8968 41.5961 33.6163C41.4799 33.3359 41.2832 33.0962 41.0309 32.9276C40.7785 32.759 40.4818 32.6689 40.1782 32.6689C39.7712 32.6689 39.3809 32.8306 39.0931 33.1184C38.8052 33.4063 38.6436 33.7966 38.6436 34.2036Z" fill="#001433"/>
<path d="M26.6611 34.4775C26.6611 34.4775 26.6611 34.4995 26.6611 34.5126C26.6611 35.4453 27.0316 36.3397 27.6911 36.9992C28.3506 37.6587 29.2451 38.0292 30.1777 38.0292C31.1104 38.0292 32.0049 37.6587 32.6644 36.9992C33.3238 36.3397 33.6943 35.4453 33.6943 34.5126V34.4775" stroke="#001433" stroke-linecap="round" stroke-linejoin="round"/>
</g>
</g>
<defs>
<clipPath id="clip0_17231_17946">
<rect width="58" height="59" fill="white"/>
</clipPath>
</defs>
</svg>
