<svg width="15" height="14" viewBox="0 0 15 14" fill="none" xmlns="http://www.w3.org/2000/svg">
<path d="M7.25033 9.77067C4.75949 9.77067 2.72949 7.74067 2.72949 5.24984C2.72949 2.759 4.75949 0.729004 7.25033 0.729004C9.74116 0.729004 11.7712 2.759 11.7712 5.24984C11.7712 7.74067 9.74116 9.77067 7.25033 9.77067ZM7.25033 1.604C5.23783 1.604 3.60449 3.23734 3.60449 5.24984C3.60449 7.26234 5.23783 8.89567 7.25033 8.89567C9.26283 8.89567 10.8962 7.26234 10.8962 5.24984C10.8962 3.23734 9.26283 1.604 7.25033 1.604Z" fill="#212121"/>
<mask id="path-2-inside-1_18129_10114" fill="white">
<path d="M7.25 13.271C7.01083 13.271 6.8125 13.0727 6.8125 12.8335V9.3335C6.8125 9.09433 7.01083 8.896 7.25 8.896C7.48917 8.896 7.6875 9.09433 7.6875 9.3335V12.8335C7.6875 13.0727 7.48917 13.271 7.25 13.271Z"/>
</mask>
<path d="M7.25 13.271C7.01083 13.271 6.8125 13.0727 6.8125 12.8335V9.3335C6.8125 9.09433 7.01083 8.896 7.25 8.896C7.48917 8.896 7.6875 9.09433 7.6875 9.3335V12.8335C7.6875 13.0727 7.48917 13.271 7.25 13.271Z" fill="#212121"/>
<path d="M7.25 12.271C7.56312 12.271 7.8125 12.5204 7.8125 12.8335H5.8125C5.8125 13.6249 6.45855 14.271 7.25 14.271L7.25 12.271ZM7.8125 12.8335V9.3335H5.8125V12.8335H7.8125ZM7.8125 9.3335C7.8125 9.64661 7.56312 9.896 7.25 9.896V7.896C6.45855 7.896 5.8125 8.54204 5.8125 9.3335H7.8125ZM7.25 9.896C6.93688 9.896 6.6875 9.64661 6.6875 9.3335H8.6875C8.6875 8.54204 8.04145 7.896 7.25 7.896V9.896ZM6.6875 9.3335V12.8335H8.6875V9.3335H6.6875ZM6.6875 12.8335C6.6875 12.5204 6.93688 12.271 7.25 12.271L7.25 14.271C8.04145 14.271 8.6875 13.6249 8.6875 12.8335H6.6875Z" fill="#212121" mask="url(#path-2-inside-1_18129_10114)"/>
<path d="M9 11.521H5.5C5.26083 11.521 5.0625 11.3227 5.0625 11.0835C5.0625 10.8443 5.26083 10.646 5.5 10.646H9C9.23917 10.646 9.4375 10.8443 9.4375 11.0835C9.4375 11.3227 9.23917 11.521 9 11.521Z" fill="#212121"/>
</svg>
