<svg width="78" height="78" viewBox="0 0 78 78" fill="none" xmlns="http://www.w3.org/2000/svg">
<g filter="url(#filter0_d_17920_11062)">
<rect x="13" y="9" width="52" height="52" rx="26" fill="#F38193" shape-rendering="crispEdges"/>
<g clip-path="url(#clip0_17920_11062)">
<path d="M40.8858 47.9999C37.1125 47.7564 34.1972 46.3036 32.1973 43.2467C32.0737 43.0252 31.8997 42.8352 31.6892 42.6914C31.4786 42.5476 31.2372 42.4541 30.9839 42.4182C28.5988 41.9823 26.9823 40.131 27.0001 37.9792C27.02 35.7646 28.5631 34.0388 31.0038 33.5617C31.401 33.4852 31.6492 33.3654 31.8518 33.0159C32.6919 31.4842 33.9247 30.1977 35.4265 29.2857C36.1434 28.8616 35.7244 28.3531 35.6707 27.9212C35.3232 25.1176 36.9914 22.7106 39.7657 22.1137C43.3007 21.3559 46.5854 24.4874 45.8963 28.0036C45.7593 28.7065 45.8705 29.0756 46.4921 29.5193C50.168 32.1541 51.6952 35.7567 50.7082 40.1211C49.7947 44.1655 47.0601 46.6648 42.9929 47.6857C42.262 47.8781 41.4975 47.9154 40.8858 47.9999ZM47.6519 43.6806C51.1014 40.1741 50.4044 33.8366 46.365 30.7366C45.6322 30.1731 45.2608 30.0514 44.6372 30.9525C42.4527 34.0938 39.0508 34.0192 36.8543 30.8602C36.8323 30.836 36.8136 30.8089 36.7987 30.7797C36.4651 29.9709 36.0044 30.1181 35.4443 30.5677C34.5654 31.259 33.7886 32.0685 33.1367 32.9728C32.813 33.4224 32.7196 33.6678 33.375 33.9544C35.1921 34.7613 36.0361 36.2358 36.0481 38.1637C36.0327 38.4044 36.0817 38.6449 36.1901 38.861C36.2985 39.0771 36.4625 39.2612 36.6657 39.3947C38.7172 40.8849 40.9712 41.0694 43.3622 40.502C44.7186 40.18 45.9181 40.3724 46.8476 41.5072C47.346 42.1139 47.4989 42.8462 47.6539 43.6786L47.6519 43.6806ZM40.5541 46.869C42.4348 46.8199 44.0752 46.5215 45.4654 45.4456C46.7324 44.464 46.8078 42.697 45.6183 41.8155C44.8457 41.2461 43.9739 41.4719 43.1418 41.6545C40.6256 42.2062 38.2902 41.8292 36.1652 40.3665C35.7978 40.1133 35.5516 39.9464 35.2676 40.4745C34.8936 41.1394 34.3038 41.6602 33.5934 41.9529C32.9242 42.2454 32.9977 42.5713 33.3611 43.0622C35.1981 45.5025 37.6646 46.7375 40.5541 46.869ZM44.8557 27.5796C44.8735 25.4553 43.9421 24.0358 42.3872 23.4154C40.6991 22.742 39.0111 23.117 37.7738 24.4226C35.1921 27.1202 37.7877 31.5808 40.157 32.0991C40.5444 32.1918 40.9475 32.2014 41.339 32.1272C41.7306 32.053 42.1015 31.8968 42.4269 31.6691C43.1148 31.2099 43.69 30.6042 44.1103 29.8966C44.5306 29.1889 44.7853 28.3972 44.8557 27.5796ZM34.926 38.0086C34.937 37.5677 34.8579 37.1292 34.6936 36.7192C34.5292 36.3092 34.283 35.9362 33.9695 35.6225C33.656 35.3087 33.2817 35.0606 32.8691 34.8931C32.4564 34.7256 32.0139 34.642 31.5678 34.6475C31.1223 34.6349 30.6789 34.7105 30.2634 34.87C29.848 35.0295 29.4691 35.2695 29.1489 35.5759C28.8288 35.8824 28.5739 36.249 28.3992 36.6544C28.2246 37.0597 28.1338 37.4954 28.1321 37.936C28.1277 38.3851 28.2132 38.8306 28.3838 39.2469C28.5544 39.6632 28.8066 40.042 29.126 40.3614C29.4454 40.6808 29.8256 40.9345 30.2447 41.1079C30.6638 41.2813 31.1135 41.371 31.5678 41.3718C32.0134 41.3739 32.4549 41.2881 32.8665 41.1194C33.2781 40.9507 33.6516 40.7024 33.9649 40.3892C34.2782 40.076 34.5251 39.7041 34.6912 39.2953C34.8572 38.8865 34.9391 38.4491 34.932 38.0086H34.926Z" fill="white"/>
</g>
</g>
<defs>
<filter id="filter0_d_17920_11062" x="0.9" y="0.9" width="76.2" height="76.2" filterUnits="userSpaceOnUse" color-interpolation-filters="sRGB">
<feFlood flood-opacity="0" result="BackgroundImageFix"/>
<feColorMatrix in="SourceAlpha" type="matrix" values="0 0 0 0 0 0 0 0 0 0 0 0 0 0 0 0 0 0 127 0" result="hardAlpha"/>
<feOffset dy="4"/>
<feGaussianBlur stdDeviation="6.05"/>
<feComposite in2="hardAlpha" operator="out"/>
<feColorMatrix type="matrix" values="0 0 0 0 0.952941 0 0 0 0 0.505882 0 0 0 0 0.576471 0 0 0 0.54 0"/>
<feBlend mode="normal" in2="BackgroundImageFix" result="effect1_dropShadow_17920_11062"/>
<feBlend mode="normal" in="SourceGraphic" in2="effect1_dropShadow_17920_11062" result="shape"/>
</filter>
<clipPath id="clip0_17920_11062">
<rect width="24" height="26" fill="white" transform="translate(27 22)"/>
</clipPath>
</defs>
</svg>
