<svg width="33" height="33" viewBox="0 0 33 33" fill="none" xmlns="http://www.w3.org/2000/svg">
<path fill-rule="evenodd" clip-rule="evenodd" d="M16.5 0.155273C7.66344 0.155273 0.5 7.31872 0.5 16.1553C0.5 24.9918 7.66344 32.1553 16.5 32.1553C25.3366 32.1553 32.5 24.9918 32.5 16.1553C32.5 7.31872 25.3366 0.155273 16.5 0.155273ZM12.9817 7.67363C13.8919 7.6322 14.1827 7.62207 16.5003 7.62207H16.4976C18.8159 7.62207 19.1056 7.6322 20.0159 7.67363C20.9243 7.71523 21.5448 7.85905 22.0888 8.07008C22.6506 8.28786 23.1252 8.57941 23.5999 9.05409C24.0746 9.5284 24.3661 10.0045 24.5848 10.5657C24.7946 11.1083 24.9386 11.7284 24.9813 12.6369C25.0221 13.5471 25.0328 13.838 25.0328 16.1555C25.0328 18.473 25.0221 18.7632 24.9813 19.6734C24.9386 20.5815 24.7946 21.2018 24.5848 21.7445C24.3661 22.3056 24.0746 22.7817 23.5999 23.256C23.1258 23.7307 22.6504 24.023 22.0893 24.2409C21.5464 24.4519 20.9256 24.5958 20.0171 24.6374C19.1069 24.6788 18.8169 24.6889 16.4992 24.6889C14.1819 24.6889 13.8912 24.6788 12.981 24.6374C12.0727 24.5958 11.4524 24.4519 10.9095 24.2409C10.3486 24.023 9.87248 23.7307 9.39834 23.256C8.92385 22.7817 8.63229 22.3056 8.41415 21.7444C8.2033 21.2018 8.05948 20.5817 8.0177 19.6732C7.97646 18.763 7.96615 18.473 7.96615 16.1555C7.96615 13.838 7.97681 13.5469 8.01752 12.6367C8.05841 11.7286 8.20241 11.1083 8.41397 10.5656C8.63264 10.0045 8.9242 9.5284 9.39887 9.05409C9.87319 8.57959 10.3493 8.28803 10.9105 8.07008C11.4531 7.85905 12.0732 7.71523 12.9817 7.67363Z" fill="#00ABB9"/>
<path fill-rule="evenodd" clip-rule="evenodd" d="M15.735 9.15936C15.8836 9.15913 16.0435 9.1592 16.2161 9.15928L16.5005 9.15936C18.7789 9.15936 19.049 9.16754 19.9487 9.20843C20.7807 9.24647 21.2323 9.3855 21.5331 9.5023C21.9313 9.65697 22.2152 9.84186 22.5137 10.1405C22.8124 10.4392 22.9973 10.7236 23.1523 11.1219C23.2691 11.4223 23.4083 11.8739 23.4462 12.7059C23.4871 13.6055 23.496 13.8757 23.496 16.153C23.496 18.4304 23.4871 18.7006 23.4462 19.6002C23.4081 20.4322 23.2691 20.8837 23.1523 21.1842C22.9976 21.5824 22.8124 21.866 22.5137 22.1645C22.2151 22.4631 21.9315 22.648 21.5331 22.8027C21.2326 22.92 20.7807 23.0587 19.9487 23.0967C19.0492 23.1376 18.7789 23.1465 16.5005 23.1465C14.2219 23.1465 13.9519 23.1376 13.0523 23.0967C12.2203 23.0583 11.7687 22.9193 11.4677 22.8025C11.0695 22.6479 10.7851 22.463 10.4864 22.1643C10.1877 21.8656 10.0028 21.5819 9.84782 21.1835C9.73102 20.883 9.59182 20.4315 9.55395 19.5995C9.51306 18.6999 9.50488 18.4297 9.50488 16.1509C9.50488 13.8721 9.51306 13.6033 9.55395 12.7038C9.59199 11.8717 9.73102 11.4202 9.84782 11.1194C10.0025 10.7212 10.1877 10.4367 10.4864 10.138C10.7851 9.83937 11.0695 9.65448 11.4677 9.49945C11.7686 9.38212 12.2203 9.24345 13.0523 9.20523C13.8395 9.16967 14.1446 9.159 15.735 9.15723V9.15936ZM21.0549 10.5762C20.4896 10.5762 20.0309 11.0343 20.0309 11.5999C20.0309 12.1652 20.4896 12.6239 21.0549 12.6239C21.6203 12.6239 22.0789 12.1652 22.0789 11.5999C22.0789 11.0345 21.6203 10.5758 21.0549 10.5758V10.5762ZM12.1182 16.1551C12.1182 13.735 14.0802 11.7729 16.5003 11.7728C18.9204 11.7728 20.882 13.7349 20.882 16.1551C20.882 18.5752 18.9205 20.5364 16.5004 20.5364C14.0803 20.5364 12.1182 18.5752 12.1182 16.1551Z" fill="#00ABB9"/>
<path d="M16.5007 13.3105C18.0716 13.3105 19.3452 14.584 19.3452 16.155C19.3452 17.7259 18.0716 18.9995 16.5007 18.9995C14.9297 18.9995 13.6562 17.7259 13.6562 16.155C13.6562 14.584 14.9297 13.3105 16.5007 13.3105Z" fill="#00ABB9"/>
</svg>
