<svg width="18" height="19" viewBox="0 0 18 19" fill="none" xmlns="http://www.w3.org/2000/svg">
<path d="M8.8423 9.24008C8.4373 9.24008 8.02481 9.16508 7.7023 9.02258L3.2773 7.05758C2.1523 6.55508 1.9873 5.88008 1.9873 5.51258C1.9873 5.14508 2.1523 4.47008 3.2773 3.96758L7.7023 2.00258C8.3548 1.71008 9.3373 1.71008 9.98981 2.00258L14.4223 3.96758C15.5398 4.46258 15.7123 5.14508 15.7123 5.51258C15.7123 5.88008 15.5473 6.55508 14.4223 7.05758L9.98981 9.02258C9.6598 9.17258 9.2548 9.24008 8.8423 9.24008ZM8.8423 2.91008C8.5873 2.91008 8.3398 2.94758 8.1598 3.03008L3.7348 4.99508C3.2773 5.20508 3.1123 5.41508 3.1123 5.51258C3.1123 5.61008 3.2773 5.82758 3.7273 6.03008L8.1523 7.99508C8.5123 8.15258 9.1648 8.15258 9.5248 7.99508L13.9573 6.03008C14.4148 5.82758 14.5798 5.61008 14.5798 5.51258C14.5798 5.41508 14.4148 5.19758 13.9573 4.99508L9.5323 3.03008C9.3523 2.95508 9.0973 2.91008 8.8423 2.91008Z" fill="#969595"/>
<path d="M9 13.1476C8.715 13.1476 8.43 13.0876 8.16 12.9676L3.0675 10.7026C2.295 10.3651 1.6875 9.42758 1.6875 8.58008C1.6875 8.27258 1.9425 8.01758 2.25 8.01758C2.5575 8.01758 2.8125 8.27258 2.8125 8.58008C2.8125 8.99258 3.15 9.51008 3.525 9.68258L8.6175 11.9476C8.8575 12.0526 9.135 12.0526 9.3825 11.9476L14.475 9.68258C14.85 9.51758 15.1875 8.99258 15.1875 8.58008C15.1875 8.27258 15.4425 8.01758 15.75 8.01758C16.0575 8.01758 16.3125 8.27258 16.3125 8.58008C16.3125 9.42758 15.705 10.3651 14.9325 10.7101L9.84 12.9751C9.57 13.0876 9.285 13.1476 9 13.1476Z" fill="#969595"/>
<path d="M9 16.8978C8.715 16.8978 8.43 16.8378 8.16 16.7178L3.0675 14.4528C2.2275 14.0778 1.6875 13.2453 1.6875 12.3228C1.6875 12.0153 1.9425 11.7603 2.25 11.7603C2.5575 11.7603 2.8125 12.0228 2.8125 12.3303C2.8125 12.8028 3.09 13.2378 3.525 13.4328L8.6175 15.6978C8.8575 15.8028 9.135 15.8028 9.3825 15.6978L14.475 13.4328C14.91 13.2378 15.1875 12.8103 15.1875 12.3303C15.1875 12.0228 15.4425 11.7678 15.75 11.7678C16.0575 11.7678 16.3125 12.0228 16.3125 12.3303C16.3125 13.2528 15.7725 14.0853 14.9325 14.4603L9.84 16.7253C9.57 16.8378 9.285 16.8978 9 16.8978Z" fill="#969595"/>
</svg>
