<svg width="33" height="33" viewBox="0 0 33 33" fill="none" xmlns="http://www.w3.org/2000/svg">
<path fill-rule="evenodd" clip-rule="evenodd" d="M16.5 0.155273C7.66344 0.155273 0.5 7.31872 0.5 16.1553C0.5 24.9918 7.66344 32.1553 16.5 32.1553C25.3366 32.1553 32.5 24.9918 32.5 16.1553C32.5 7.31872 25.3366 0.155273 16.5 0.155273ZM8.18099 13.4072H11.8069V24.3017H8.18099V13.4072ZM12.046 10.0371C12.0224 8.96888 11.2586 8.15527 10.0182 8.15527C8.77774 8.15527 7.9668 8.96888 7.9668 10.0371C7.9668 11.0831 8.75377 11.9202 9.97108 11.9202H9.99426C11.2586 11.9202 12.046 11.0831 12.046 10.0371ZM20.7085 13.1514C23.0945 13.1514 24.8833 14.7088 24.8833 18.0551L24.8832 24.3017H21.2574V18.4731C21.2574 17.0091 20.7327 16.0101 19.4201 16.0101C18.4183 16.0101 17.8217 16.6836 17.5596 17.3341C17.4637 17.5672 17.4402 17.892 17.4402 18.2176V24.302H13.8138C13.8138 24.302 13.8616 14.4298 13.8138 13.4075H17.4402V14.9506C17.9214 14.2088 18.7834 13.1514 20.7085 13.1514Z" fill="#00ABB9"/>
</svg>
