<svg width="20" height="20" viewBox="0 0 20 20" fill="none" xmlns="http://www.w3.org/2000/svg">
<path d="M15 8.95817C14.6583 8.95817 14.375 8.67484 14.375 8.33317V6.6665C14.375 4.0415 13.6333 2.2915 10 2.2915C6.36667 2.2915 5.625 4.0415 5.625 6.6665V8.33317C5.625 8.67484 5.34167 8.95817 5 8.95817C4.65833 8.95817 4.375 8.67484 4.375 8.33317V6.6665C4.375 4.24984 4.95833 1.0415 10 1.0415C15.0417 1.0415 15.625 4.24984 15.625 6.6665V8.33317C15.625 8.67484 15.3417 8.95817 15 8.95817Z" fill="#00ABB9"/>
<path d="M14.167 18.9585H5.83366C2.15866 18.9585 1.04199 17.8418 1.04199 14.1668V12.5002C1.04199 8.82516 2.15866 7.7085 5.83366 7.7085H14.167C17.842 7.7085 18.9587 8.82516 18.9587 12.5002V14.1668C18.9587 17.8418 17.842 18.9585 14.167 18.9585ZM5.83366 8.9585C2.85033 8.9585 2.29199 9.52516 2.29199 12.5002V14.1668C2.29199 17.1418 2.85033 17.7085 5.83366 17.7085H14.167C17.1503 17.7085 17.7087 17.1418 17.7087 14.1668V12.5002C17.7087 9.52516 17.1503 8.9585 14.167 8.9585H5.83366Z" fill="#00ABB9"/>
<path d="M6.66634 14.1667C6.55801 14.1667 6.44967 14.1417 6.34967 14.1001C6.24134 14.0584 6.15801 14 6.07468 13.925C5.92468 13.7667 5.83301 13.5584 5.83301 13.3334C5.83301 13.2251 5.858 13.1167 5.89966 13.0167C5.94133 12.9084 5.99968 12.8251 6.07468 12.7417C6.15801 12.6667 6.24134 12.6084 6.34967 12.5667C6.64967 12.4334 7.02467 12.5084 7.258 12.7417C7.333 12.8251 7.39135 12.9167 7.43302 13.0167C7.47469 13.1167 7.49967 13.2251 7.49967 13.3334C7.49967 13.5501 7.408 13.7667 7.258 13.925C7.09967 14.075 6.88301 14.1667 6.66634 14.1667Z" fill="#00ABB9"/>
<path d="M10.0003 14.1669C9.78366 14.1669 9.567 14.0752 9.40867 13.9252C9.25867 13.7669 9.16699 13.5586 9.16699 13.3336C9.16699 13.2253 9.18365 13.1169 9.23365 13.0169C9.27531 12.9169 9.33367 12.8253 9.40867 12.7419C9.60033 12.5503 9.89199 12.4586 10.1587 12.5169C10.217 12.5252 10.267 12.5419 10.317 12.5669C10.367 12.5836 10.417 12.6086 10.467 12.6419C10.5087 12.6669 10.5503 12.7086 10.592 12.7419C10.667 12.8253 10.7253 12.9169 10.767 13.0169C10.8087 13.1169 10.8337 13.2253 10.8337 13.3336C10.8337 13.5586 10.742 13.7669 10.592 13.9252C10.5503 13.9586 10.5087 13.9919 10.467 14.0252C10.417 14.0586 10.367 14.0836 10.317 14.1003C10.267 14.1253 10.217 14.1419 10.1587 14.1503C10.1087 14.1586 10.0503 14.1669 10.0003 14.1669Z" fill="#00ABB9"/>
<path d="M13.3333 14.1669C13.1083 14.1669 12.9 14.0752 12.7417 13.9252C12.6667 13.8419 12.6083 13.7503 12.5667 13.6503C12.525 13.5503 12.5 13.4419 12.5 13.3336C12.5 13.1169 12.5917 12.9003 12.7417 12.7419C12.7833 12.7086 12.825 12.6753 12.8667 12.6419C12.9167 12.6086 12.9667 12.5836 13.0167 12.5669C13.0667 12.5419 13.1167 12.5252 13.1667 12.5169C13.4417 12.4586 13.725 12.5503 13.925 12.7419C14.075 12.9003 14.1667 13.1086 14.1667 13.3336C14.1667 13.4419 14.1417 13.5503 14.1 13.6503C14.0583 13.7586 14 13.8419 13.925 13.9252C13.7667 14.0752 13.55 14.1669 13.3333 14.1669Z" fill="#00ABB9"/>
</svg>
