<svg width="20" height="20" viewBox="0 0 20 20" fill="none" xmlns="http://www.w3.org/2000/svg">
<path d="M14.5331 12.8085C14.3747 12.8085 14.2164 12.7502 14.0914 12.6252C13.8497 12.3835 13.8497 11.9835 14.0914 11.7419L15.7831 10.0502L14.0914 8.35853C13.8497 8.11686 13.8497 7.71686 14.0914 7.4752C14.3331 7.23353 14.7331 7.23353 14.9747 7.4752L17.1081 9.60853C17.3497 9.85019 17.3497 10.2502 17.1081 10.4919L14.9747 12.6252C14.8497 12.7502 14.6914 12.8085 14.5331 12.8085Z" fill="#FF2B2B"/>
<path d="M16.6088 10.6748H8.13379C7.79212 10.6748 7.50879 10.3915 7.50879 10.0498C7.50879 9.70814 7.79212 9.4248 8.13379 9.4248H16.6088C16.9505 9.4248 17.2338 9.70814 17.2338 10.0498C17.2338 10.3915 16.9505 10.6748 16.6088 10.6748Z" fill="#FF2B2B"/>
<path d="M9.80046 17.2918C5.50879 17.2918 2.50879 14.2918 2.50879 10.0002C2.50879 5.7085 5.50879 2.7085 9.80046 2.7085C10.1421 2.7085 10.4255 2.99183 10.4255 3.3335C10.4255 3.67516 10.1421 3.9585 9.80046 3.9585C6.24212 3.9585 3.75879 6.44183 3.75879 10.0002C3.75879 13.5585 6.24212 16.0418 9.80046 16.0418C10.1421 16.0418 10.4255 16.3252 10.4255 16.6668C10.4255 17.0085 10.1421 17.2918 9.80046 17.2918Z" fill="#FF2B2B"/>
</svg>
