<svg width="15" height="15" viewBox="0 0 15 15" fill="none" xmlns="http://www.w3.org/2000/svg">
<path d="M6.22884 13.7799C3.49301 13.7799 1.27051 11.5574 1.27051 8.82161C1.27051 6.08578 3.49301 3.86328 6.22884 3.86328C8.96467 3.86328 11.1872 6.08578 11.1872 8.82161C11.1872 11.5574 8.96467 13.7799 6.22884 13.7799ZM6.22884 4.73828C3.97717 4.73828 2.14551 6.56995 2.14551 8.82161C2.14551 11.0733 3.97717 12.9049 6.22884 12.9049C8.48051 12.9049 10.3122 11.0733 10.3122 8.82161C10.3122 6.56995 8.48051 4.73828 6.22884 4.73828Z" fill="#212121"/>
<path d="M9.53912 5.42323C9.53914 5.42321 9.53916 5.42319 9.53918 5.42317L9.53912 5.42323ZM12.4827 1.95012L12.7474 2.2149L12.4827 1.95012ZM9.62789 5.512L9.62796 5.51194L9.62789 5.512Z" fill="#212121" stroke="#212121"/>
<path d="M12.7917 6.48844C12.5525 6.48844 12.3542 6.29011 12.3542 6.05094V2.69678L9 2.69678C8.76083 2.69678 8.5625 2.49844 8.5625 2.25928C8.5625 2.02011 8.76083 1.82178 9 1.82178L12.7917 1.82178C13.0308 1.82178 13.2292 2.02011 13.2292 2.25928V6.05094C13.2292 6.29011 13.0308 6.48844 12.7917 6.48844Z" fill="#212121"/>
</svg>
