<svg width="58" height="59" viewBox="0 0 58 59" fill="none" xmlns="http://www.w3.org/2000/svg">
<path d="M28.9011 58.7715C44.8623 58.7715 57.8013 45.8325 57.8013 29.8714C57.8013 13.9102 44.8623 0.971191 28.9011 0.971191C12.94 0.971191 0.000976562 13.9102 0.000976562 29.8714C0.000976562 45.8325 12.94 58.7715 28.9011 58.7715Z" fill="white"/>
<mask id="mask0_17231_17838" style="mask-type:luminance" maskUnits="userSpaceOnUse" x="0" y="0" width="58" height="59">
<path d="M28.9002 58.771C44.8613 58.771 57.8003 45.832 57.8003 29.8709C57.8003 13.9098 44.8613 0.970703 28.9002 0.970703C12.939 0.970703 0 13.9098 0 29.8709C0 45.832 12.939 58.771 28.9002 58.771Z" fill="white"/>
</mask>
<g mask="url(#mask0_17231_17838)">
<path d="M44.444 83.8222C52.142 76.1242 52.142 63.6434 44.444 55.9454C36.7461 48.2475 24.2652 48.2475 16.5673 55.9454C8.86933 63.6434 8.86933 76.1242 16.5673 83.8222C24.2652 91.5201 36.7461 91.5201 44.444 83.8222Z" fill="#C0E4F9"/>
<path d="M35.2778 44.5249H25.502V51.3148H35.2778V44.5249Z" fill="#C0E4F9"/>
<g opacity="0.2">
<path d="M35.2788 44.5249H25.5029V51.3148H35.2788V44.5249Z" fill="#22689E"/>
</g>
<path d="M44.8857 84.264C52.8277 76.322 52.8277 63.4456 44.8857 55.5036C36.9437 47.5616 24.0673 47.5616 16.1253 55.5036C8.18335 63.4456 8.18335 76.322 16.1253 84.264C24.0673 92.2059 36.9437 92.2059 44.8857 84.264Z" fill="#22689E"/>
<path d="M35.9753 47.2847H24.6143V54.5262H35.9753V47.2847Z" fill="#22689E"/>
<path d="M47.8291 30.1295C47.7147 25.5552 45.8172 21.2067 42.5415 18.0119C39.2658 14.817 34.8712 13.0288 30.2954 13.0288C25.7197 13.0288 21.3251 14.817 18.0493 18.0119C14.7736 21.2067 12.8761 25.5552 12.7617 30.1295V32.1246H47.8291V30.1295Z" fill="#22689E"/>
<path d="M15.1477 37.3007C17.4022 37.3007 19.2299 35.473 19.2299 33.2185C19.2299 30.9639 17.4022 29.1362 15.1477 29.1362C12.8931 29.1362 11.0654 30.9639 11.0654 33.2185C11.0654 35.473 12.8931 37.3007 15.1477 37.3007Z" fill="#C0E4F9"/>
<path opacity="0.2" d="M15.1477 37.3007C17.4022 37.3007 19.2299 35.473 19.2299 33.2185C19.2299 30.9639 17.4022 29.1362 15.1477 29.1362C12.8931 29.1362 11.0654 30.9639 11.0654 33.2185C11.0654 35.473 12.8931 37.3007 15.1477 37.3007Z" fill="#22689E"/>
<path d="M45.8889 37.3007C48.1434 37.3007 49.9711 35.473 49.9711 33.2185C49.9711 30.9639 48.1434 29.1362 45.8889 29.1362C43.6343 29.1362 41.8066 30.9639 41.8066 33.2185C41.8066 35.473 43.6343 37.3007 45.8889 37.3007Z" fill="#C0E4F9"/>
<path opacity="0.2" d="M45.8889 37.3007C48.1434 37.3007 49.9711 35.473 49.9711 33.2185C49.9711 30.9639 48.1434 29.1362 45.8889 29.1362C43.6343 29.1362 41.8066 30.9639 41.8066 33.2185C41.8066 35.473 43.6343 37.3007 45.8889 37.3007Z" fill="#22689E"/>
<path d="M30.3913 47.2411C38.8405 47.2411 45.6899 40.3917 45.6899 31.9426C45.6899 23.4934 38.8405 16.644 30.3913 16.644C21.9422 16.644 15.0928 23.4934 15.0928 31.9426C15.0928 40.3917 21.9422 47.2411 30.3913 47.2411Z" fill="#C0E4F9"/>
<path d="M51.0439 17.852C51.0439 17.852 47.1875 20.0641 42.7128 17.1022C35.5524 12.371 28.2364 8.28878 22.2424 14.4472C18.7477 18.8605 19.309 24.1858 24.0533 28.5575C26.9034 31.4076 36.6179 33.6789 43.6775 29.498V35.2377H45.9027V27.8691C48.3429 25.6898 50.2415 22.467 51.0439 17.852Z" fill="#22689E"/>
<path d="M21.6173 24.0607C21.6171 22.8041 21.2413 21.5762 20.5381 20.5347C19.835 19.4932 18.8365 18.6857 17.671 18.2158C14.6498 21.3448 12.9042 25.488 12.7754 29.8355L12.8302 29.8574C13.5106 29.3871 14.3182 29.1354 15.1454 29.1361V35.2376H17.3707V30.0219C18.6105 29.5933 19.6859 28.7887 20.447 27.7203C21.2082 26.6518 21.6173 25.3726 21.6173 24.0607Z" fill="#22689E"/>
<path d="M19.0303 34.2046C19.0303 34.5081 19.1203 34.8048 19.2889 35.0572C19.4575 35.3096 19.6972 35.5063 19.9777 35.6225C20.2581 35.7386 20.5667 35.769 20.8644 35.7098C21.162 35.6506 21.4355 35.5044 21.6501 35.2898C21.8648 35.0752 22.0109 34.8017 22.0701 34.504C22.1294 34.2063 22.099 33.8977 21.9828 33.6173C21.8666 33.3369 21.6699 33.0972 21.4176 32.9286C21.1652 32.7599 20.8685 32.6699 20.565 32.6699C20.1579 32.6699 19.7676 32.8316 19.4798 33.1194C19.192 33.4072 19.0303 33.7976 19.0303 34.2046Z" fill="#001433"/>
<path d="M38.6738 34.2046C38.6738 34.5081 38.7638 34.8048 38.9325 35.0572C39.1011 35.3096 39.3408 35.5063 39.6212 35.6225C39.9016 35.7386 40.2102 35.769 40.5079 35.7098C40.8056 35.6506 41.0791 35.5044 41.2937 35.2898C41.5083 35.0752 41.6545 34.8017 41.7137 34.504C41.7729 34.2063 41.7425 33.8977 41.6264 33.6173C41.5102 33.3369 41.3135 33.0972 41.0611 32.9286C40.8087 32.7599 40.512 32.6699 40.2085 32.6699C39.8015 32.6699 39.4111 32.8316 39.1233 33.1194C38.8355 33.4072 38.6738 33.7976 38.6738 34.2046Z" fill="#001433"/>
<path d="M26.875 34.2949V34.33C26.875 35.2627 27.2455 36.1571 27.905 36.8166C28.5645 37.4761 29.4589 37.8466 30.3916 37.8466C31.3243 37.8466 32.2187 37.4761 32.8782 36.8166C33.5377 36.1571 33.9082 35.2627 33.9082 34.33C33.9082 34.3168 33.9082 34.3059 33.9082 34.2949" stroke="#001433" stroke-linecap="round" stroke-linejoin="round"/>
</g>
</svg>
