<svg width="15" height="15" viewBox="0 0 15 15" fill="none" xmlns="http://www.w3.org/2000/svg">
<path d="M9.37927 12.8193C9.12844 12.8193 8.8776 12.7668 8.67344 12.6677L5.61094 11.1335C5.43594 11.046 5.09177 11.0518 4.9226 11.151L3.54594 11.9385C2.95094 12.2768 2.33844 12.3235 1.8776 12.0493C1.41094 11.781 1.14844 11.2327 1.14844 10.5443L1.14844 4.87434C1.14844 4.3435 1.49844 3.74267 1.95927 3.48017L4.4851 2.0335C4.91094 1.7885 5.55844 1.771 5.99594 1.99267L9.05844 3.52684C9.23344 3.61434 9.57177 3.60267 9.74677 3.50934L11.1176 2.72767C11.7126 2.38934 12.3251 2.34267 12.7859 2.61684C13.2526 2.88517 13.5151 3.4335 13.5151 4.12184V9.79767C13.5151 10.3285 13.1651 10.9293 12.7043 11.1918L10.1784 12.6385C9.95677 12.7552 9.6651 12.8193 9.37927 12.8193ZM5.2901 10.2002C5.54094 10.2002 5.79177 10.2527 5.99594 10.3518L9.05844 11.886C9.23344 11.9735 9.57177 11.9618 9.74677 11.8685L12.2726 10.4218C12.4593 10.3168 12.6401 10.0018 12.6401 9.79183V4.116C12.6401 3.7485 12.5351 3.47434 12.3426 3.36934C12.1559 3.26434 11.8643 3.30517 11.5493 3.486L10.1784 4.26767C9.7526 4.51267 9.1051 4.53017 8.6676 4.3085L5.6051 2.77434C5.4301 2.68684 5.09177 2.6985 4.91677 2.79184L2.39094 4.2385C2.20427 4.3435 2.02344 4.6585 2.02344 4.87434L2.02344 10.5502C2.02344 10.9177 2.12844 11.1918 2.3151 11.2968C2.50177 11.4077 2.79344 11.361 3.11427 11.1802L4.4851 10.3985C4.7126 10.2643 5.00427 10.2002 5.2901 10.2002Z" fill="#212121"/>
<mask id="path-2-inside-1_17994_3149" fill="white">
<path d="M5.24316 10.6844C5.004 10.6844 4.80566 10.4861 4.80566 10.2469L4.80566 2.66357C4.80566 2.42441 5.004 2.22607 5.24316 2.22607C5.48233 2.22607 5.68066 2.42441 5.68066 2.66357L5.68066 10.2469C5.68066 10.4861 5.48233 10.6844 5.24316 10.6844Z"/>
</mask>
<path d="M5.24316 10.6844C5.004 10.6844 4.80566 10.4861 4.80566 10.2469L4.80566 2.66357C4.80566 2.42441 5.004 2.22607 5.24316 2.22607C5.48233 2.22607 5.68066 2.42441 5.68066 2.66357L5.68066 10.2469C5.68066 10.4861 5.48233 10.6844 5.24316 10.6844Z" fill="#212121"/>
<path d="M5.24316 9.68441C5.55628 9.68441 5.80566 9.93379 5.80566 10.2469H3.80566C3.80566 11.0384 4.45171 11.6844 5.24316 11.6844V9.68441ZM5.80566 10.2469L5.80566 2.66357H3.80566L3.80566 10.2469H5.80566ZM5.80566 2.66357C5.80566 2.97669 5.55628 3.22607 5.24316 3.22607V1.22607C4.45171 1.22607 3.80566 1.87212 3.80566 2.66357H5.80566ZM5.24316 3.22607C4.93005 3.22607 4.68066 2.97669 4.68066 2.66357H6.68066C6.68066 1.87212 6.03462 1.22607 5.24316 1.22607V3.22607ZM4.68066 2.66357L4.68066 10.2469H6.68066L6.68066 2.66357H4.68066ZM4.68066 10.2469C4.68066 9.93379 4.93005 9.68441 5.24316 9.68441V11.6844C6.03462 11.6844 6.68066 11.0384 6.68066 10.2469H4.68066Z" fill="#212121" mask="url(#path-2-inside-1_17994_3149)"/>
<path d="M9.42578 12.4344C9.18661 12.4344 8.98828 12.2361 8.98828 11.9969V4.19189C8.98828 3.95273 9.18661 3.75439 9.42578 3.75439C9.66495 3.75439 9.86328 3.95273 9.86328 4.19189V11.9969C9.86328 12.2361 9.66495 12.4344 9.42578 12.4344Z" fill="#212121"/>
</svg>
