<svg width="24" height="16" viewBox="0 0 24 16" fill="none" xmlns="http://www.w3.org/2000/svg">
<path d="M8.75586 13.8969H15.2457V2.104H8.75586V13.8969Z" fill="#FF5F00"/>
<path d="M9.16714 7.99997C9.16714 5.60748 10.2749 3.47665 12 2.10354C10.7383 1.09916 9.14654 0.5 7.41633 0.5C3.32032 0.5 0 3.8579 0 7.99997C0 12.142 3.32032 15.4999 7.41633 15.4999C9.14654 15.4999 10.7383 14.9008 12 13.8964C10.2749 12.5231 9.16714 10.3925 9.16714 7.99997Z" fill="#EB001B"/>
<path fill-rule="evenodd" clip-rule="evenodd" d="M16.5837 15.4999C20.6795 15.4999 24 12.142 24 7.99997C24 3.8579 20.6795 0.5 16.5837 0.5C14.8535 0.5 13.2615 1.09916 12 2.10354C13.7251 3.47686 14.8329 5.60769 14.8329 7.99997C14.8329 10.3925 13.7251 12.5233 12 13.8964C13.2615 14.9008 14.8535 15.4999 16.5837 15.4999ZM23.7682 12.6466V12.3556H23.693L23.6067 12.5558L23.5201 12.3556H23.4449V12.6466H23.4979V12.427L23.5791 12.6164H23.6341L23.7152 12.4266V12.6466H23.7682ZM23.2922 12.6464V12.4049H23.3886V12.3558H23.1434V12.4049H23.2396V12.6464H23.2922Z" fill="#F79E1B"/>
</svg>
