<svg width="20" height="20" viewBox="0 0 20 20" fill="none" xmlns="http://www.w3.org/2000/svg">
<path d="M1.66699 11.6667C1.66699 8.52397 1.66699 6.95262 2.6433 5.97631C3.61961 5 5.19096 5 8.33366 5H11.667C14.8097 5 16.381 5 17.3573 5.97631C18.3337 6.95262 18.3337 8.52397 18.3337 11.6667C18.3337 14.8094 18.3337 16.3807 17.3573 17.357C16.381 18.3333 14.8097 18.3333 11.667 18.3333H8.33366C5.19096 18.3333 3.61961 18.3333 2.6433 17.357C1.66699 16.3807 1.66699 14.8094 1.66699 11.6667Z" stroke="#969595"/>
<path d="M13.3337 4.99984C13.3337 3.42849 13.3337 2.64281 12.8455 2.15466C12.3573 1.6665 11.5717 1.6665 10.0003 1.6665C8.42898 1.6665 7.6433 1.6665 7.15515 2.15466C6.66699 2.64281 6.66699 3.42849 6.66699 4.99984" stroke="#969595"/>
<path d="M11.25 11.6665H8.75M10 10.4165V12.9165" stroke="#969595" stroke-linecap="round"/>
<ellipse cx="10.0003" cy="11.6668" rx="3.33333" ry="3.33333" stroke="#969595"/>
</svg>
