<svg width="24" height="25" viewBox="0 0 24 25" fill="none" xmlns="http://www.w3.org/2000/svg">
<path d="M17 2.33008H7C4.24 2.33008 2 4.56008 2 7.31008V13.2901V14.2901C2 17.0401 4.24 19.2701 7 19.2701H8.5C8.77 19.2701 9.13 19.4501 9.3 19.6701L10.8 21.6601C11.46 22.5401 12.54 22.5401 13.2 21.6601L14.7 19.6701C14.89 19.4201 15.19 19.2701 15.5 19.2701H17C19.76 19.2701 22 17.0401 22 14.2901V7.31008C22 4.56008 19.76 2.33008 17 2.33008ZM13 14.0801H7C6.59 14.0801 6.25 13.7401 6.25 13.3301C6.25 12.9201 6.59 12.5801 7 12.5801H13C13.41 12.5801 13.75 12.9201 13.75 13.3301C13.75 13.7401 13.41 14.0801 13 14.0801ZM17 9.08008H7C6.59 9.08008 6.25 8.74008 6.25 8.33008C6.25 7.92008 6.59 7.58008 7 7.58008H17C17.41 7.58008 17.75 7.92008 17.75 8.33008C17.75 8.74008 17.41 9.08008 17 9.08008Z" fill="#00ABB9"/>
</svg>
