<svg width="18" height="19" viewBox="0 0 18 19" fill="none" xmlns="http://www.w3.org/2000/svg">
<path d="M12.75 16.2676H5.25C2.5125 16.2676 0.9375 14.6926 0.9375 11.9551V6.70508C0.9375 3.96758 2.5125 2.39258 5.25 2.39258H12.75C15.4875 2.39258 17.0625 3.96758 17.0625 6.70508V11.9551C17.0625 14.6926 15.4875 16.2676 12.75 16.2676ZM5.25 3.51758C3.105 3.51758 2.0625 4.56008 2.0625 6.70508V11.9551C2.0625 14.1001 3.105 15.1426 5.25 15.1426H12.75C14.895 15.1426 15.9375 14.1001 15.9375 11.9551V6.70508C15.9375 4.56008 14.895 3.51758 12.75 3.51758H5.25Z" fill="#969595"/>
<path d="M9 12.1426C7.4475 12.1426 6.1875 10.8826 6.1875 9.33008C6.1875 7.77758 7.4475 6.51758 9 6.51758C10.5525 6.51758 11.8125 7.77758 11.8125 9.33008C11.8125 10.8826 10.5525 12.1426 9 12.1426ZM9 7.64258C8.07 7.64258 7.3125 8.40008 7.3125 9.33008C7.3125 10.2601 8.07 11.0176 9 11.0176C9.93 11.0176 10.6875 10.2601 10.6875 9.33008C10.6875 8.40008 9.93 7.64258 9 7.64258Z" fill="#969595"/>
<path d="M4.125 11.7676C3.8175 11.7676 3.5625 11.5126 3.5625 11.2051V7.45508C3.5625 7.14758 3.8175 6.89258 4.125 6.89258C4.4325 6.89258 4.6875 7.14758 4.6875 7.45508V11.2051C4.6875 11.5126 4.4325 11.7676 4.125 11.7676Z" fill="#969595"/>
<path d="M13.875 11.7676C13.5675 11.7676 13.3125 11.5126 13.3125 11.2051V7.45508C13.3125 7.14758 13.5675 6.89258 13.875 6.89258C14.1825 6.89258 14.4375 7.14758 14.4375 7.45508V11.2051C14.4375 11.5126 14.1825 11.7676 13.875 11.7676Z" fill="#969595"/>
</svg>
