<svg width="24" height="25" viewBox="0 0 24 25" fill="none" xmlns="http://www.w3.org/2000/svg">
<path d="M20.1902 14.3899L19.0602 12.5099C18.8102 12.0999 18.5902 11.3099 18.5902 10.8299V8.95988C18.5902 5.32988 15.6402 2.37988 12.0202 2.37988C8.3902 2.38988 5.4402 5.32988 5.4402 8.95988V10.8199C5.4402 11.2999 5.2202 12.0899 4.9802 12.4999L3.8502 14.3799C3.4202 15.1099 3.3202 15.9399 3.5902 16.6599C3.8602 17.3899 4.4702 17.9699 5.2702 18.2299C6.3502 18.5899 7.4402 18.8499 8.5502 19.0399C8.6602 19.0599 8.7702 19.0699 8.8802 19.0899C9.0202 19.1099 9.1702 19.1299 9.3202 19.1499C9.5802 19.1899 9.8402 19.2199 10.1102 19.2399C10.7402 19.2999 11.3802 19.3299 12.0202 19.3299C12.6502 19.3299 13.2802 19.2999 13.9002 19.2399C14.1302 19.2199 14.3602 19.1999 14.5802 19.1699C14.7602 19.1499 14.9402 19.1299 15.1202 19.0999C15.2302 19.0899 15.3402 19.0699 15.4502 19.0499C16.5702 18.8699 17.6802 18.5899 18.7602 18.2299C19.5302 17.9699 20.1202 17.3899 20.4002 16.6499C20.6802 15.8999 20.6002 15.0799 20.1902 14.3899ZM12.7502 10.3299C12.7502 10.7499 12.4102 11.0899 11.9902 11.0899C11.5702 11.0899 11.2302 10.7499 11.2302 10.3299V7.22988C11.2302 6.80988 11.5702 6.46988 11.9902 6.46988C12.4102 6.46988 12.7502 6.80988 12.7502 7.22988V10.3299Z" fill="#00ABB9"/>
<path d="M14.8297 20.3401C14.4097 21.5001 13.2997 22.3301 11.9997 22.3301C11.2097 22.3301 10.4297 22.0101 9.87969 21.4401C9.55969 21.1401 9.31969 20.7401 9.17969 20.3301C9.30969 20.3501 9.43969 20.3601 9.57969 20.3801C9.80969 20.4101 10.0497 20.4401 10.2897 20.4601C10.8597 20.5101 11.4397 20.5401 12.0197 20.5401C12.5897 20.5401 13.1597 20.5101 13.7197 20.4601C13.9297 20.4401 14.1397 20.4301 14.3397 20.4001C14.4997 20.3801 14.6597 20.3601 14.8297 20.3401Z" fill="#00ABB9"/>
</svg>
