<svg width="15" height="14" viewBox="0 0 15 14" fill="none" xmlns="http://www.w3.org/2000/svg">
<path d="M7.74967 7.43734C5.90051 7.43734 4.39551 5.93234 4.39551 4.08317C4.39551 2.234 5.90051 0.729004 7.74967 0.729004C9.59884 0.729004 11.1038 2.234 11.1038 4.08317C11.1038 5.93234 9.59884 7.43734 7.74967 7.43734ZM7.74967 1.604C6.38467 1.604 5.27051 2.71817 5.27051 4.08317C5.27051 5.44817 6.38467 6.56234 7.74967 6.56234C9.11467 6.56234 10.2288 5.44817 10.2288 4.08317C10.2288 2.71817 9.11467 1.604 7.74967 1.604Z" fill="#212121"/>
<mask id="path-2-inside-1_17190_9655" fill="white">
<path d="M12.7609 13.2708C12.5218 13.2708 12.3234 13.0725 12.3234 12.8333C12.3234 10.8208 10.2701 9.1875 7.75009 9.1875C5.23009 9.1875 3.17676 10.8208 3.17676 12.8333C3.17676 13.0725 2.97842 13.2708 2.73926 13.2708C2.50009 13.2708 2.30176 13.0725 2.30176 12.8333C2.30176 10.3425 4.74592 8.3125 7.75009 8.3125C10.7543 8.3125 13.1984 10.3425 13.1984 12.8333C13.1984 13.0725 13.0001 13.2708 12.7609 13.2708Z"/>
</mask>
<path d="M12.7609 13.2708C12.5218 13.2708 12.3234 13.0725 12.3234 12.8333C12.3234 10.8208 10.2701 9.1875 7.75009 9.1875C5.23009 9.1875 3.17676 10.8208 3.17676 12.8333C3.17676 13.0725 2.97842 13.2708 2.73926 13.2708C2.50009 13.2708 2.30176 13.0725 2.30176 12.8333C2.30176 10.3425 4.74592 8.3125 7.75009 8.3125C10.7543 8.3125 13.1984 10.3425 13.1984 12.8333C13.1984 13.0725 13.0001 13.2708 12.7609 13.2708Z" fill="#212121"/>
<path d="M12.7609 12.2708C13.074 12.2708 13.3234 12.5202 13.3234 12.8333H11.3234C11.3234 13.6248 11.9695 14.2708 12.7609 14.2708V12.2708ZM13.3234 12.8333C13.3234 10.0685 10.5984 8.1875 7.75009 8.1875V10.1875C9.94183 10.1875 11.3234 11.5732 11.3234 12.8333H13.3234ZM7.75009 8.1875C4.90183 8.1875 2.17676 10.0685 2.17676 12.8333H4.17676C4.17676 11.5732 5.55835 10.1875 7.75009 10.1875V8.1875ZM2.17676 12.8333C2.17676 12.5202 2.42614 12.2708 2.73926 12.2708V14.2708C3.53071 14.2708 4.17676 13.6248 4.17676 12.8333H2.17676ZM2.73926 12.2708C3.05238 12.2708 3.30176 12.5202 3.30176 12.8333H1.30176C1.30176 13.6248 1.94781 14.2708 2.73926 14.2708V12.2708ZM3.30176 12.8333C3.30176 11.0611 5.11572 9.3125 7.75009 9.3125V7.3125C4.37613 7.3125 1.30176 9.62389 1.30176 12.8333H3.30176ZM7.75009 9.3125C10.3845 9.3125 12.1984 11.0611 12.1984 12.8333H14.1984C14.1984 9.62389 11.1241 7.3125 7.75009 7.3125V9.3125ZM12.1984 12.8333C12.1984 12.5202 12.4478 12.2708 12.7609 12.2708V14.2708C13.5524 14.2708 14.1984 13.6248 14.1984 12.8333H12.1984Z" fill="#212121" mask="url(#path-2-inside-1_17190_9655)"/>
</svg>
