<svg width="20" height="20" viewBox="0 0 20 20" fill="none" xmlns="http://www.w3.org/2000/svg">
<g clip-path="url(#clip0_18452_3257)">
<mask id="path-1-inside-1_18452_3257" fill="white">
<path d="M11.5715 19.9998C8.4271 19.8125 5.99764 18.6949 4.33111 16.3435C4.22806 16.1732 4.08311 16.0269 3.90765 15.9163C3.73219 15.8058 3.53102 15.7338 3.31994 15.7062C1.33235 15.3709 -0.0147722 13.9468 0.000122278 12.2916C0.0166717 10.588 1.30256 9.26052 3.33649 8.89354C3.66748 8.83464 3.87435 8.74251 4.04315 8.47369C4.74324 7.2954 5.77056 6.30583 7.02205 5.60425C7.61949 5.27804 7.27029 4.88689 7.22561 4.55464C6.93599 2.39803 8.32615 0.546486 10.6381 0.0873761C13.5839 -0.495573 16.3212 1.91325 15.7469 4.61807C15.6327 5.15873 15.7254 5.44266 16.2434 5.78397C19.3067 7.8107 20.5794 10.582 19.7568 13.9392C18.9956 17.0503 16.7167 18.9728 13.3274 19.7581C12.7184 19.9061 12.0812 19.9348 11.5715 19.9998ZM17.2099 16.6773C20.0845 13.98 19.5036 9.10497 16.1375 6.72031C15.5268 6.28688 15.2173 6.19324 14.6977 6.88644C12.8772 9.30281 10.0423 9.24542 8.21196 6.81546C8.19355 6.7968 8.17796 6.77598 8.16562 6.75354C7.88759 6.13132 7.50364 6.24459 7.03694 6.59043C6.30447 7.1222 5.65717 7.74492 5.1139 8.44047C4.84414 8.78631 4.76636 8.97509 5.31249 9.19558C6.82677 9.81629 7.53012 10.9505 7.54005 12.4335C7.52724 12.6187 7.56805 12.8037 7.6584 12.9699C7.74874 13.1361 7.88543 13.2777 8.05474 13.3804C9.76429 14.5267 11.6427 14.6687 13.6352 14.2322C14.7655 13.9845 15.7651 14.1325 16.5396 15.0054C16.955 15.4721 17.0825 16.0354 17.2115 16.6758L17.2099 16.6773ZM11.2951 19.1299C12.8623 19.0921 14.2293 18.8626 15.3878 18.035C16.4436 17.2799 16.5065 15.9206 15.5152 15.2426C14.8715 14.8046 14.1449 14.9783 13.4515 15.1187C11.3547 15.5431 9.40848 15.2531 7.63769 14.128C7.33153 13.9332 7.12631 13.8048 6.88966 14.2111C6.57798 14.7225 6.08648 15.1231 5.49454 15.3483C4.93682 15.5733 4.99805 15.824 5.30091 16.2015C6.83173 18.0788 8.88717 19.0287 11.2951 19.1299ZM14.8797 4.29186C14.8946 2.65779 14.1185 1.56589 12.8226 1.08866C11.4159 0.57065 10.0092 0.859105 8.97819 1.86341C6.82677 3.93847 8.98978 7.36971 10.9641 7.76841C11.287 7.83971 11.6229 7.84708 11.9492 7.79003C12.2755 7.73298 12.5846 7.61284 12.8557 7.43767C13.429 7.08442 13.9083 6.61853 14.2586 6.07418C14.6088 5.52983 14.821 4.92083 14.8797 4.29186ZM6.605 12.3142C6.61415 11.9751 6.54828 11.6377 6.41132 11.3224C6.27437 11.007 6.06914 10.72 5.8079 10.4787C5.54667 10.2373 5.23479 10.0465 4.89091 9.91767C4.54703 9.7888 4.17821 9.72453 3.80649 9.7287C3.43529 9.71902 3.06571 9.77723 2.71953 9.89988C2.37335 10.0225 2.05757 10.2072 1.79077 10.4429C1.52397 10.6786 1.31156 10.9607 1.16604 11.2725C1.02052 11.5842 0.944835 11.9195 0.94344 12.2583C0.939726 12.6038 1.011 12.9465 1.15316 13.2667C1.29532 13.587 1.50554 13.8783 1.7717 14.124C2.03787 14.3697 2.35471 14.5649 2.70394 14.6983C3.05318 14.8317 3.4279 14.9007 3.80649 14.9012C4.17782 14.9029 4.54576 14.8369 4.88877 14.7071C5.23179 14.5773 5.54296 14.3864 5.80406 14.1454C6.06516 13.9045 6.27093 13.6184 6.40932 13.304C6.5477 12.9895 6.61592 12.653 6.60997 12.3142H6.605Z"/>
</mask>
<path d="M11.5715 19.9998C8.4271 19.8125 5.99764 18.6949 4.33111 16.3435C4.22806 16.1732 4.08311 16.0269 3.90765 15.9163C3.73219 15.8058 3.53102 15.7338 3.31994 15.7062C1.33235 15.3709 -0.0147722 13.9468 0.000122278 12.2916C0.0166717 10.588 1.30256 9.26052 3.33649 8.89354C3.66748 8.83464 3.87435 8.74251 4.04315 8.47369C4.74324 7.2954 5.77056 6.30583 7.02205 5.60425C7.61949 5.27804 7.27029 4.88689 7.22561 4.55464C6.93599 2.39803 8.32615 0.546486 10.6381 0.0873761C13.5839 -0.495573 16.3212 1.91325 15.7469 4.61807C15.6327 5.15873 15.7254 5.44266 16.2434 5.78397C19.3067 7.8107 20.5794 10.582 19.7568 13.9392C18.9956 17.0503 16.7167 18.9728 13.3274 19.7581C12.7184 19.9061 12.0812 19.9348 11.5715 19.9998ZM17.2099 16.6773C20.0845 13.98 19.5036 9.10497 16.1375 6.72031C15.5268 6.28688 15.2173 6.19324 14.6977 6.88644C12.8772 9.30281 10.0423 9.24542 8.21196 6.81546C8.19355 6.7968 8.17796 6.77598 8.16562 6.75354C7.88759 6.13132 7.50364 6.24459 7.03694 6.59043C6.30447 7.1222 5.65717 7.74492 5.1139 8.44047C4.84414 8.78631 4.76636 8.97509 5.31249 9.19558C6.82677 9.81629 7.53012 10.9505 7.54005 12.4335C7.52724 12.6187 7.56805 12.8037 7.6584 12.9699C7.74874 13.1361 7.88543 13.2777 8.05474 13.3804C9.76429 14.5267 11.6427 14.6687 13.6352 14.2322C14.7655 13.9845 15.7651 14.1325 16.5396 15.0054C16.955 15.4721 17.0825 16.0354 17.2115 16.6758L17.2099 16.6773ZM11.2951 19.1299C12.8623 19.0921 14.2293 18.8626 15.3878 18.035C16.4436 17.2799 16.5065 15.9206 15.5152 15.2426C14.8715 14.8046 14.1449 14.9783 13.4515 15.1187C11.3547 15.5431 9.40848 15.2531 7.63769 14.128C7.33153 13.9332 7.12631 13.8048 6.88966 14.2111C6.57798 14.7225 6.08648 15.1231 5.49454 15.3483C4.93682 15.5733 4.99805 15.824 5.30091 16.2015C6.83173 18.0788 8.88717 19.0287 11.2951 19.1299ZM14.8797 4.29186C14.8946 2.65779 14.1185 1.56589 12.8226 1.08866C11.4159 0.57065 10.0092 0.859105 8.97819 1.86341C6.82677 3.93847 8.98978 7.36971 10.9641 7.76841C11.287 7.83971 11.6229 7.84708 11.9492 7.79003C12.2755 7.73298 12.5846 7.61284 12.8557 7.43767C13.429 7.08442 13.9083 6.61853 14.2586 6.07418C14.6088 5.52983 14.821 4.92083 14.8797 4.29186ZM6.605 12.3142C6.61415 11.9751 6.54828 11.6377 6.41132 11.3224C6.27437 11.007 6.06914 10.72 5.8079 10.4787C5.54667 10.2373 5.23479 10.0465 4.89091 9.91767C4.54703 9.7888 4.17821 9.72453 3.80649 9.7287C3.43529 9.71902 3.06571 9.77723 2.71953 9.89988C2.37335 10.0225 2.05757 10.2072 1.79077 10.4429C1.52397 10.6786 1.31156 10.9607 1.16604 11.2725C1.02052 11.5842 0.944835 11.9195 0.94344 12.2583C0.939726 12.6038 1.011 12.9465 1.15316 13.2667C1.29532 13.587 1.50554 13.8783 1.7717 14.124C2.03787 14.3697 2.35471 14.5649 2.70394 14.6983C3.05318 14.8317 3.4279 14.9007 3.80649 14.9012C4.17782 14.9029 4.54576 14.8369 4.88877 14.7071C5.23179 14.5773 5.54296 14.3864 5.80406 14.1454C6.06516 13.9045 6.27093 13.6184 6.40932 13.304C6.5477 12.9895 6.61592 12.653 6.60997 12.3142H6.605Z" fill="white"/>
<path d="M11.5715 19.9998L11.3337 23.9927L11.7065 24.0149L12.077 23.9677L11.5715 19.9998ZM4.33111 16.3435L0.908561 18.4138L0.98369 18.538L1.06762 18.6564L4.33111 16.3435ZM3.31994 15.7062L2.65461 19.6505L2.7275 19.6628L2.80081 19.6724L3.31994 15.7062ZM0.000122278 12.2916L-3.99969 12.2527L-3.99972 12.2556L0.000122278 12.2916ZM3.33649 8.89354L2.6357 4.95539L2.62623 4.9571L3.33649 8.89354ZM4.04315 8.47369L7.43066 10.6009L7.45682 10.5592L7.48196 10.5169L4.04315 8.47369ZM7.02205 5.60425L5.10512 2.0935L5.08553 2.1042L5.06606 2.11511L7.02205 5.60425ZM7.22561 4.55464L3.2612 5.08703L3.2613 5.08779L7.22561 4.55464ZM10.6381 0.0873761L9.86159 -3.83653L9.85899 -3.83601L10.6381 0.0873761ZM15.7469 4.61807L11.8341 3.78734L11.8333 3.79148L15.7469 4.61807ZM16.2434 5.78397L18.4505 2.44801L18.4442 2.44386L16.2434 5.78397ZM19.7568 13.9392L15.8717 12.9874L15.8715 12.9885L19.7568 13.9392ZM13.3274 19.7581L12.4245 15.8614L12.4036 15.8662L12.3828 15.8713L13.3274 19.7581ZM17.2099 16.6773L14.4729 13.7603L19.9062 19.6319L17.2099 16.6773ZM16.1375 6.72031L13.8223 9.98221L13.8252 9.98428L16.1375 6.72031ZM14.6977 6.88644L17.8925 9.29335L17.8982 9.28572L14.6977 6.88644ZM8.21196 6.81546L11.407 4.40882L11.2465 4.19585L11.0593 4.00605L8.21196 6.81546ZM8.16562 6.75354L4.51362 8.38539L4.5812 8.53661L4.66104 8.68173L8.16562 6.75354ZM7.03694 6.59043L9.3869 9.82736L9.40275 9.81586L9.41849 9.80419L7.03694 6.59043ZM5.1139 8.44047L1.96152 5.97825L1.95988 5.98035L5.1139 8.44047ZM5.31249 9.19558L6.8296 5.49445L6.81981 5.49044L6.81 5.48648L5.31249 9.19558ZM7.54005 12.4335L11.5305 12.7096L11.541 12.5584L11.54 12.4067L7.54005 12.4335ZM8.05474 13.3804L10.2824 10.0581L10.2072 10.0077L10.1299 9.96081L8.05474 13.3804ZM13.6352 14.2322L14.4911 18.1396L14.4914 18.1395L13.6352 14.2322ZM16.5396 15.0054L13.5476 17.6602L13.5518 17.665L16.5396 15.0054ZM17.2115 16.6758L19.9078 19.6304L21.58 18.1045L21.1327 15.8853L17.2115 16.6758ZM11.2951 19.1299L11.1272 23.1264L11.2593 23.1319L11.3915 23.1287L11.2951 19.1299ZM15.3878 18.035L17.713 21.2897L17.7147 21.2885L15.3878 18.035ZM15.5152 15.2426L17.7736 11.941L17.7652 11.9353L15.5152 15.2426ZM13.4515 15.1187L14.245 19.0392L14.2456 19.0391L13.4515 15.1187ZM7.63769 14.128L5.49028 17.5027L5.49255 17.5042L7.63769 14.128ZM6.88966 14.2111L10.3054 16.2926L10.326 16.2588L10.346 16.2245L6.88966 14.2111ZM5.49454 15.3483L4.07264 11.6095L4.03511 11.6238L3.99787 11.6388L5.49454 15.3483ZM5.30091 16.2015L2.18069 18.7044L2.19078 18.717L2.20097 18.7295L5.30091 16.2015ZM14.8797 4.29186L18.8624 4.66342L18.878 4.49623L18.8796 4.32832L14.8797 4.29186ZM12.8226 1.08866L14.205 -2.66488L14.2049 -2.66493L12.8226 1.08866ZM8.97819 1.86341L11.7551 4.74247L11.7622 4.73562L11.7692 4.72873L8.97819 1.86341ZM10.9641 7.76841L11.8265 3.86249L11.7913 3.85471L11.7559 3.84756L10.9641 7.76841ZM12.8557 7.43767L10.7573 4.03227L10.721 4.05463L10.6852 4.07776L12.8557 7.43767ZM6.605 12.3142L2.60646 12.2063L2.49564 16.3142H6.605V12.3142ZM3.80649 9.7287L3.70229 13.7273L3.77678 13.7293L3.85129 13.7284L3.80649 9.7287ZM0.94344 12.2583L4.94321 12.3013L4.94335 12.2881L4.94341 12.2748L0.94344 12.2583ZM3.80649 14.9012L3.82428 10.9013L3.81264 10.9012L3.80649 14.9012ZM6.60997 12.3142L10.6094 12.244L10.5403 8.31421H6.60997V12.3142ZM11.8093 16.0069C9.57674 15.8739 8.40279 15.1709 7.5946 14.0306L1.06762 18.6564C3.59249 22.219 7.27745 23.7511 11.3337 23.9927L11.8093 16.0069ZM7.75366 14.2732C7.31513 13.5482 6.71952 12.9604 6.04047 12.5324L1.77483 19.3003C1.44669 19.0935 1.14099 18.7981 0.908561 18.4138L7.75366 14.2732ZM6.04047 12.5324C5.36243 12.105 4.60823 11.8407 3.83907 11.74L2.80081 19.6724C2.4538 19.6269 2.10196 19.5065 1.77483 19.3003L6.04047 12.5324ZM3.98527 11.7619C3.75444 11.723 3.72301 11.6494 3.78819 11.717C3.82143 11.7515 3.87671 11.8214 3.92375 11.9339C3.97211 12.0496 4.00123 12.1864 3.99996 12.3276L-3.99972 12.2556C-4.03653 16.3468 -0.768401 19.0731 2.65461 19.6505L3.98527 11.7619ZM3.99993 12.3304C3.99916 12.4097 3.98185 12.5193 3.93257 12.6371C3.88385 12.7536 3.82083 12.8377 3.77129 12.8884C3.67327 12.9886 3.70232 12.8921 4.04675 12.83L2.62623 4.9571C-0.77629 5.57103 -3.95977 8.14391 -3.99969 12.2527L3.99993 12.3304ZM4.03728 12.8317C4.37368 12.7718 5.01881 12.637 5.70619 12.2517C6.47441 11.8212 7.03585 11.2296 7.43066 10.6009L0.655645 6.34653C0.881648 5.98662 1.25525 5.57549 1.79509 5.27295C2.25409 5.01571 2.63029 4.95637 2.6357 4.9554L4.03728 12.8317ZM7.48196 10.5169C7.8062 9.97116 8.30934 9.46827 8.97804 9.09339L5.06606 2.11511C3.23178 3.1434 1.68027 4.61965 0.604344 6.43051L7.48196 10.5169ZM8.93898 9.115C9.50543 8.80572 10.2485 8.26487 10.7776 7.34714C11.3409 6.3699 11.4166 5.39437 11.3443 4.67943C11.2838 4.08029 11.1039 3.5854 11.089 3.54075C11.0144 3.3184 11.1389 3.64179 11.1899 4.02149L3.2613 5.08779C3.30413 5.4063 3.37322 5.66215 3.41607 5.80816C3.45577 5.94343 3.50181 6.07749 3.50437 6.08513C3.54876 6.21746 3.42726 5.90304 3.3849 5.48399C3.33084 4.94915 3.38459 4.15334 3.84681 3.35157C4.27472 2.6093 4.83739 2.23968 5.10512 2.0935L8.93898 9.115ZM11.19 4.02225C11.1845 3.98089 11.1917 3.98377 11.183 4.01698C11.1745 4.04976 11.1583 4.08193 11.1408 4.10489C11.124 4.12704 11.1209 4.12142 11.154 4.10144C11.1875 4.08125 11.2691 4.04019 11.4172 4.01077L9.85899 -3.83601C5.68873 -3.00788 2.66241 0.628209 3.2612 5.08703L11.19 4.02225ZM11.4146 4.01128C11.607 3.9732 11.773 4.03683 11.8625 4.11603C11.9007 4.14977 11.8811 4.14864 11.8557 4.08047C11.8425 4.04491 11.8302 3.99657 11.8256 3.93888C11.8209 3.88003 11.8257 3.82726 11.8341 3.78734L19.6597 5.4488C20.2922 2.46955 19.0461 -0.210537 17.1626 -1.87642C15.2906 -3.53209 12.615 -4.3814 9.8616 -3.83653L11.4146 4.01128ZM11.8333 3.79148C11.7186 4.33428 11.529 5.49377 12.0524 6.78166C12.5738 8.06473 13.5168 8.77762 14.0426 9.12408L18.4442 2.44386C18.452 2.44901 19.0897 2.84928 19.4638 3.7699C19.8399 4.69533 19.661 5.44253 19.6606 5.44466L11.8333 3.79148ZM14.0363 9.11993C15.0872 9.81522 15.5734 10.4654 15.7934 10.9675C15.9975 11.4336 16.1 12.0557 15.8717 12.9874L23.6419 14.8911C24.2362 12.4655 24.1136 10.0233 23.1212 7.75776C22.1447 5.52832 20.4629 3.77945 18.4505 2.44801L14.0363 9.11993ZM15.8715 12.9885C15.5438 14.3276 14.6777 15.3393 12.4245 15.8614L14.2303 23.6549C18.7558 22.6063 22.4473 19.773 23.6422 14.89L15.8715 12.9885ZM12.3828 15.8713C12.3175 15.8872 12.1972 15.909 11.9632 15.9354C11.8453 15.9487 11.7317 15.9598 11.5761 15.9754C11.4357 15.9895 11.2522 16.0081 11.066 16.0319L12.077 23.9677C12.1309 23.9608 13.3827 23.8611 14.272 23.645L12.3828 15.8713ZM19.9469 19.5943C24.9225 14.9257 23.5836 7.09329 18.4497 3.45635L13.8252 9.98428C14.5383 10.4895 14.9531 11.2575 15.0386 12.0247C15.1227 12.7792 14.8843 13.3743 14.4729 13.7603L19.9469 19.5943ZM18.4527 3.45842C18.2635 3.32416 17.9007 3.0714 17.4554 2.85818C16.9893 2.635 16.2079 2.34329 15.2178 2.38432C13.0625 2.47364 11.8706 3.98892 11.4971 4.48716L17.8982 9.28572C17.896 9.28867 17.8607 9.33589 17.7929 9.40776C17.7257 9.47894 17.6033 9.59928 17.4227 9.73178C17.0251 10.0236 16.3825 10.3429 15.5491 10.3775C14.7777 10.4094 14.2206 10.1791 14.0005 10.0737C13.8012 9.97826 13.7061 9.89975 13.8223 9.9822L18.4527 3.45842ZM11.5029 4.47954C11.3523 4.67944 11.2603 4.72376 11.2768 4.71485C11.2841 4.71089 11.311 4.69779 11.3565 4.68638C11.4024 4.67488 11.4563 4.66791 11.5136 4.6687C11.5708 4.66949 11.6192 4.67782 11.6551 4.68773C11.6904 4.69751 11.7046 4.70633 11.698 4.70264C11.6853 4.69552 11.5717 4.62756 11.407 4.40882L5.01695 9.2221C6.52133 11.2193 8.76529 12.6316 11.4035 12.6679C14.0647 12.7046 16.3582 11.3299 17.8925 9.29334L11.5029 4.47954ZM11.0593 4.00605C11.2933 4.24328 11.5009 4.51765 11.6702 4.82535L4.66104 8.68173C4.85502 9.0343 5.09374 9.35032 5.36463 9.62486L11.0593 4.00605ZM11.8176 5.12168C11.3997 4.18654 10.2169 2.39064 7.80375 2.31113C6.10064 2.25502 4.88585 3.2059 4.6554 3.37668L9.41849 9.80419C9.41584 9.80616 9.38656 9.82787 9.3352 9.86013C9.28492 9.8917 9.19304 9.9463 9.06485 10.0062C8.83675 10.1128 8.29256 10.3316 7.54031 10.3068C6.68469 10.2786 5.90193 9.9464 5.31628 9.4383C4.80807 8.99738 4.58528 8.54575 4.51362 8.38539L11.8176 5.12168ZM4.68699 3.3535C3.65997 4.0991 2.74064 4.98075 1.96153 5.97825L8.26627 10.9027C8.5737 10.5091 8.94896 10.1453 9.3869 9.82736L4.68699 3.3535ZM1.95988 5.98035C1.87872 6.08441 1.62979 6.40126 1.41399 6.81163C1.2025 7.21381 0.782666 8.14669 0.939605 9.37286C1.11225 10.7217 1.86753 11.6214 2.4608 12.1131C2.98929 12.551 3.52508 12.7876 3.81499 12.9047L6.81 5.48648C6.82684 5.49328 7.16756 5.62359 7.56545 5.95333C8.02815 6.33677 8.71733 7.12634 8.87487 8.35721C9.01671 9.46538 8.63277 10.2725 8.49466 10.5351C8.35225 10.8059 8.2142 10.9694 8.26792 10.9006L1.95988 5.98035ZM3.79539 12.8967C3.87905 12.931 3.88384 12.9446 3.84393 12.9136C3.80052 12.8798 3.73288 12.8154 3.66788 12.7185C3.60307 12.6218 3.56671 12.5313 3.54924 12.469C3.53296 12.4109 3.53975 12.4017 3.54014 12.4603L11.54 12.4067C11.5307 11.0279 11.191 9.57372 10.3129 8.26388C9.43248 6.95049 8.19214 6.05296 6.8296 5.49445L3.79539 12.8967ZM3.54959 12.1574C3.48319 13.1171 3.6976 14.0589 4.14399 14.8801L11.1728 11.0597C11.4385 11.5485 11.5713 12.1203 11.5305 12.7096L3.54959 12.1574ZM4.14399 14.8801C4.58828 15.6975 5.235 16.3482 5.9796 16.8001L10.1299 9.96081C10.5359 10.2072 10.9092 10.5747 11.1728 11.0597L4.14399 14.8801ZM5.82712 16.7027C8.68979 18.6222 11.7657 18.7365 14.4911 18.1396L12.7793 10.3248C11.5196 10.6008 10.8388 10.4312 10.2824 10.0581L5.82712 16.7027ZM14.4914 18.1395C14.6766 18.0989 14.5721 18.1554 14.3022 18.0917C14.1598 18.0581 14.0036 17.998 13.8533 17.9075C13.7042 17.8176 13.6038 17.7235 13.5476 17.6602L19.5317 12.3507C17.4799 10.0383 14.7885 9.88459 12.779 10.3249L14.4914 18.1395ZM13.5518 17.665C13.454 17.5551 13.376 17.4419 13.3169 17.337C13.2595 17.2351 13.229 17.1573 13.2168 17.1232C13.2059 17.0926 13.2092 17.0956 13.2242 17.1573C13.2404 17.2235 13.2592 17.3112 13.2904 17.4662L21.1327 15.8853C21.0224 15.3385 20.755 13.725 19.5274 12.3459L13.5518 17.665ZM14.5152 13.7211L14.5136 13.7226L19.9062 19.6319L19.9078 19.6304L14.5152 13.7211ZM11.3915 23.1287C13.2259 23.0845 15.5733 22.8183 17.713 21.2897L13.0626 14.7802C12.8853 14.9068 12.4988 15.0997 11.1988 15.131L11.3915 23.1287ZM17.7147 21.2885C19.1457 20.2651 20.1299 18.6488 20.215 16.7931C20.3023 14.889 19.412 13.0618 17.7736 11.9411L13.2569 18.544C12.6098 18.1014 12.1837 17.2928 12.2234 16.4267C12.2609 15.6089 12.6857 15.0497 13.0609 14.7814L17.7147 21.2885ZM17.7652 11.9353C15.4678 10.3724 12.8728 11.1547 12.6574 11.1983L14.2456 19.0391C14.4694 18.9938 14.5458 18.9774 14.6316 18.9631C14.6997 18.9518 14.6657 18.9614 14.5734 18.9631C14.474 18.9649 14.2804 18.9583 14.0326 18.8952C13.7734 18.8293 13.508 18.7149 13.2653 18.5498L17.7652 11.9353ZM12.658 11.1982C11.4611 11.4404 10.5884 11.2637 9.78282 10.7519L5.49255 17.5042C8.22859 19.2426 11.2483 19.6457 14.245 19.0392L12.658 11.1982ZM9.7851 10.7533C9.75143 10.7319 9.50119 10.568 9.2176 10.4259C8.93432 10.2838 8.29128 9.9897 7.42751 9.94864C5.07244 9.8367 3.83212 11.5131 3.43334 12.1976L10.346 16.2245C10.2587 16.3744 9.98411 16.8174 9.42982 17.2242C8.7716 17.7072 7.93169 17.9816 7.0477 17.9396C6.30309 17.9042 5.78355 17.6533 5.63225 17.5775C5.48064 17.5015 5.37087 17.4267 5.49028 17.5027L9.7851 10.7533ZM3.47394 12.1295C3.6521 11.8372 3.88548 11.6807 4.07264 11.6095L6.91643 19.087C8.28748 18.5656 9.50386 17.6079 10.3054 16.2926L3.47394 12.1295ZM3.99787 11.6388C3.5933 11.8021 1.40842 12.6986 1.10347 15.2414C0.968423 16.3675 1.31012 17.25 1.53939 17.7136C1.76901 18.178 2.03908 18.5279 2.18069 18.7044L8.42112 13.6987C8.42741 13.7065 8.46021 13.7476 8.50576 13.8145C8.55004 13.8795 8.62769 14 8.71054 14.1676C8.86058 14.471 9.16504 15.2059 9.04655 16.194C8.91569 17.2852 8.35021 18.0583 7.8595 18.4991C7.43921 18.8767 7.06192 19.0292 6.99121 19.0577L3.99787 11.6388ZM2.20097 18.7295C4.51015 21.5612 7.66824 22.981 11.1272 23.1264L11.4631 15.1334C10.1061 15.0764 9.15331 14.5964 8.40085 13.6736L2.20097 18.7295ZM18.8796 4.32832C18.8929 2.86352 18.5487 1.36822 17.6817 0.0538904C16.8065 -1.27285 15.5623 -2.16499 14.205 -2.66488L11.4403 4.8422C11.4203 4.83483 11.352 4.80622 11.2615 4.73697C11.1685 4.66578 11.0775 4.57089 11.0037 4.459C10.845 4.21845 10.8814 4.08613 10.8799 4.2554L18.8796 4.32832ZM14.2049 -2.66493C11.4114 -3.6936 8.3666 -3.12487 6.18715 -1.00191L11.7692 4.72873C11.7694 4.72855 11.7643 4.73352 11.7533 4.74165C11.7422 4.74982 11.7263 4.76025 11.7057 4.77133C11.6625 4.79448 11.61 4.81415 11.5533 4.82562C11.4969 4.83703 11.4524 4.83713 11.4265 4.83487C11.4013 4.83267 11.4054 4.82936 11.4404 4.84225L14.2049 -2.66493ZM6.20133 -1.01566C3.55443 1.53728 3.79616 4.88052 4.76868 7.06894C5.64046 9.03068 7.54807 11.1593 10.1723 11.6893L11.7559 3.84756C11.9789 3.89259 12.1172 3.9613 12.1721 3.99196C12.2298 4.02411 12.2425 4.04024 12.2234 4.0227C12.1742 3.97751 12.1123 3.89443 12.0793 3.82016C12.0455 3.74408 12.1036 3.82337 12.0787 4.04749C12.0654 4.16739 12.0293 4.30789 11.9605 4.44903C11.891 4.59166 11.8104 4.68912 11.7551 4.74247L6.20133 -1.01566ZM10.1017 11.6743C10.9354 11.8584 11.7983 11.8771 12.6381 11.7303L11.2603 3.84981C11.4475 3.81707 11.6386 3.821 11.8265 3.86249L10.1017 11.6743ZM12.6381 11.7303C13.478 11.5834 14.2932 11.2711 15.0262 10.7976L10.6852 4.07776C10.876 3.95456 11.0729 3.88256 11.2603 3.84981L12.6381 11.7303ZM14.9541 10.8431C16.0156 10.189 16.9354 9.30641 17.6225 8.23849L10.8947 3.90987C10.8813 3.93066 10.8424 3.97988 10.7573 4.03227L14.9541 10.8431ZM17.6225 8.23849C18.3108 7.16862 18.7427 5.9471 18.8624 4.66342L10.897 3.92031C10.8981 3.90896 10.9003 3.90136 10.9013 3.89837C10.9023 3.89547 10.9013 3.89959 10.8947 3.90987L17.6225 8.23849ZM10.6035 12.4221C10.6287 11.4905 10.4469 10.5731 10.0803 9.72905L2.74235 12.9157C2.64971 12.7023 2.59963 12.4596 2.60646 12.2063L10.6035 12.4221ZM10.0803 9.72905C9.71434 8.88635 9.1773 8.14581 8.52231 7.54067L3.09349 13.4167C2.96098 13.2943 2.8344 13.1276 2.74235 12.9157L10.0803 9.72905ZM8.52231 7.54067C7.86814 6.93629 7.10741 6.47664 6.29454 6.17203L3.48728 13.6633C3.36216 13.6164 3.2252 13.5384 3.09349 13.4167L8.52231 7.54067ZM6.29454 6.17203C5.48193 5.86751 4.62157 5.71932 3.7617 5.72895L3.85129 13.7284C3.73485 13.7297 3.61213 13.7101 3.48728 13.6633L6.29454 6.17203ZM3.91069 5.73005C3.05507 5.70776 2.19701 5.84136 1.38365 6.12955L4.05541 13.6702C3.93441 13.7131 3.81551 13.7303 3.70229 13.7273L3.91069 5.73005ZM1.38365 6.12955C0.570047 6.41782 -0.194738 6.85954 -0.857727 7.44532L4.43927 13.4405C4.30987 13.5548 4.17666 13.6273 4.05541 13.6702L1.38365 6.12955ZM-0.857727 7.44532C-1.52148 8.03177 -2.07268 8.75388 -2.4586 9.58072L4.79068 12.9642C4.6958 13.1675 4.56942 13.3255 4.43927 13.4405L-0.857727 7.44532ZM-2.4586 9.58072C-2.84514 10.4089 -3.05271 11.3149 -3.05653 12.2419L4.94341 12.2748C4.94238 12.524 4.88618 12.7596 4.79068 12.9642L-2.4586 9.58072ZM-3.05633 12.2153C-3.0663 13.1426 -2.87429 14.0529 -2.50276 14.8898L4.80908 11.6437C4.8963 11.8402 4.94575 12.065 4.94321 12.3013L-3.05633 12.2153ZM-2.50276 14.8898C-2.1318 15.7254 -1.5944 16.4604 -0.941465 17.0632L4.48487 11.1848C4.60548 11.2962 4.72243 11.4485 4.80908 11.6437L-2.50276 14.8898ZM-0.941465 17.0632C-0.289287 17.6652 0.467487 18.1259 1.27663 18.435L4.13125 10.9616C4.24192 11.0039 4.36502 11.0742 4.48487 11.1848L-0.941465 17.0632ZM1.27663 18.435C2.08553 18.7439 2.94229 18.8999 3.80035 18.9012L3.81264 10.9012C3.91351 10.9014 4.02082 10.9194 4.13125 10.9616L1.27663 18.435ZM3.7887 18.9012C4.64336 18.905 5.49758 18.7535 6.30432 18.4483L3.47323 10.9659C3.59395 10.9203 3.71227 10.9008 3.82428 10.9013L3.7887 18.9012ZM6.30432 18.4483C7.11131 18.1429 7.86643 17.6851 8.51673 17.0851L3.09139 11.2058C3.21949 11.0876 3.35227 11.0117 3.47323 10.9659L6.30432 18.4483ZM8.51673 17.0851C9.1678 16.4842 9.70296 15.7502 10.0704 14.9152L2.74819 11.6927C2.8389 11.4866 2.96252 11.3247 3.09139 11.2058L8.51673 17.0851ZM10.0704 14.9152C10.4385 14.0789 10.6256 13.1693 10.6094 12.244L2.61059 12.3845C2.60623 12.1367 2.65689 11.9002 2.74819 11.6927L10.0704 14.9152ZM6.60997 8.31421H6.605V16.3142H6.60997V8.31421Z" fill="#00ABB9" mask="url(#path-1-inside-1_18452_3257)"/>
</g>
<defs>
<clipPath id="clip0_18452_3257">
<rect width="20" height="20" fill="white"/>
</clipPath>
</defs>
</svg>
