<svg width="52" height="52" viewBox="0 0 52 52" fill="none" xmlns="http://www.w3.org/2000/svg">
<rect x="0.5" y="0.5" width="51" height="51" rx="25.5" fill="white"/>
<rect x="0.5" y="0.5" width="51" height="51" rx="25.5" stroke="#F1F3F3"/>
<g clip-path="url(#clip0_17332_15097)">
<path d="M27.8858 39.0004C24.1125 38.7569 21.1972 37.3041 19.1973 34.2472C19.0737 34.0257 18.8997 33.8356 18.6892 33.6919C18.4786 33.5481 18.2372 33.4546 17.9839 33.4187C15.5988 32.9828 13.9823 31.1314 14.0001 28.9797C14.02 26.7651 15.5631 25.0393 18.0038 24.5622C18.401 24.4857 18.6492 24.3659 18.8518 24.0164C19.6919 22.4847 20.9247 21.1982 22.4265 20.2862C23.1434 19.8621 22.7244 19.3536 22.6707 18.9217C22.3232 16.1181 23.9914 13.7111 26.7657 13.1142C30.3007 12.3564 33.5854 15.4879 32.8963 19.0041C32.7593 19.707 32.8705 20.0761 33.4921 20.5198C37.168 23.1545 38.6952 26.7572 37.7082 31.1216C36.7947 35.166 34.0601 37.6653 29.9929 38.6862C29.262 38.8786 28.4975 38.9159 27.8858 39.0004ZM34.6519 34.6811C38.1014 31.1746 37.4044 24.8371 33.365 21.737C32.6322 21.1736 32.2608 21.0519 31.6372 21.953C29.4527 25.0943 26.0508 25.0197 23.8543 21.8607C23.8323 21.8365 23.8136 21.8094 23.7987 21.7802C23.4651 20.9714 23.0044 21.1186 22.4443 21.5682C21.5654 22.2595 20.7886 23.069 20.1367 23.9732C19.813 24.4228 19.7196 24.6683 20.375 24.9549C22.1921 25.7618 23.0361 27.2363 23.0481 29.1642C23.0327 29.4049 23.0817 29.6454 23.1901 29.8615C23.2985 30.0776 23.4625 30.2616 23.6657 30.3952C25.7172 31.8853 27.9712 32.0699 30.3622 31.5025C31.7186 31.1805 32.9181 31.3729 33.8476 32.5077C34.346 33.1144 34.4989 33.8467 34.6539 34.6791L34.6519 34.6811ZM27.5541 37.8695C29.4348 37.8204 31.0752 37.522 32.4654 36.4461C33.7324 35.4644 33.8078 33.6975 32.6183 32.816C31.8457 32.2466 30.9739 32.4724 30.1418 32.655C27.6256 33.2066 25.2902 32.8297 23.1652 31.367C22.7978 31.1138 22.5516 30.9469 22.2676 31.475C21.8936 32.1399 21.3038 32.6607 20.5934 32.9534C19.9242 33.2459 19.9977 33.5718 20.3611 34.0626C22.1981 36.503 24.6646 37.7379 27.5541 37.8695ZM31.8557 18.5801C31.8735 16.4558 30.9421 15.0363 29.3872 14.4159C27.6991 13.7425 26.0111 14.1175 24.7738 15.4231C22.1921 18.1206 24.7877 22.5813 27.157 23.0996C27.5444 23.1923 27.9475 23.2018 28.339 23.1277C28.7306 23.0535 29.1015 22.8973 29.4269 22.6696C30.1148 22.2104 30.69 21.6047 31.1103 20.8971C31.5306 20.1894 31.7853 19.3977 31.8557 18.5801ZM21.926 29.0091C21.937 28.5682 21.8579 28.1297 21.6936 27.7197C21.5292 27.3097 21.283 26.9367 20.9695 26.6229C20.656 26.3092 20.2817 26.0611 19.8691 25.8936C19.4564 25.7261 19.0139 25.6425 18.5678 25.6479C18.1223 25.6354 17.6789 25.711 17.2634 25.8705C16.848 26.0299 16.4691 26.27 16.1489 26.5764C15.8288 26.8828 15.5739 27.2495 15.3992 27.6548C15.2246 28.0602 15.1338 28.4959 15.1321 28.9365C15.1277 29.3856 15.2132 29.8311 15.3838 30.2474C15.5544 30.6637 15.8066 31.0424 16.126 31.3618C16.4454 31.6813 16.8256 31.935 17.2447 32.1084C17.6638 32.2818 18.1135 32.3715 18.5678 32.3722C19.0134 32.3744 19.4549 32.2886 19.8665 32.1199C20.2781 31.9512 20.6516 31.7029 20.9649 31.3897C21.2782 31.0765 21.5251 30.7046 21.6912 30.2958C21.8572 29.887 21.9391 29.4496 21.932 29.0091H21.926Z" fill="#F38193"/>
</g>
<defs>
<clipPath id="clip0_17332_15097">
<rect width="24" height="26" fill="white" transform="translate(14 13)"/>
</clipPath>
</defs>
</svg>
