<svg width="21" height="20" viewBox="0 0 21 20" fill="none" xmlns="http://www.w3.org/2000/svg">
<path d="M18.3749 11.3669V12.2002C18.3749 12.4252 18.1999 12.6085 17.9666 12.6169H16.7499C16.3082 12.6169 15.9082 12.2919 15.8749 11.8585C15.8499 11.6002 15.9499 11.3585 16.1166 11.1919C16.2666 11.0335 16.4749 10.9502 16.6999 10.9502H17.9582C18.1999 10.9585 18.3749 11.1419 18.3749 11.3669Z" fill="#00ABB9"/>
<path d="M15.491 10.5745C15.0743 10.9829 14.8743 11.5912 15.041 12.2245C15.2577 12.9995 16.016 13.4912 16.816 13.4912H17.541C17.9993 13.4912 18.3743 13.8662 18.3743 14.3245V14.4829C18.3743 16.2079 16.966 17.6162 15.241 17.6162H5.67435C3.94935 17.6162 2.54102 16.2079 2.54102 14.4829V8.87454C2.54102 7.84954 3.03268 6.94121 3.79102 6.37454C4.31602 5.97454 4.96602 5.74121 5.67435 5.74121H15.241C16.966 5.74121 18.3743 7.14954 18.3743 8.87454V9.24121C18.3743 9.69954 17.9993 10.0745 17.541 10.0745H16.691C16.2243 10.0745 15.7993 10.2579 15.491 10.5745Z" fill="#00ABB9"/>
<path d="M13.9999 4.01699C14.2249 4.24199 14.0332 4.59199 13.7166 4.59199L7.31655 4.58366C6.94989 4.58366 6.75822 4.13366 7.02489 3.87533L8.37489 2.51699C9.51655 1.38366 11.3666 1.38366 12.5082 2.51699L13.9666 3.99199C13.9749 4.00033 13.9916 4.00866 13.9999 4.01699Z" fill="#00ABB9"/>
</svg>
