<svg width="21" height="20" viewBox="0 0 21 20" fill="none" xmlns="http://www.w3.org/2000/svg">
<path d="M17.1999 5.68373L12.3999 2.3254C11.0915 1.40873 9.0832 1.45873 7.82487 2.43373L3.64987 5.69206C2.81654 6.34206 2.1582 7.6754 2.1582 8.7254V14.4754C2.1582 16.6004 3.8832 18.3337 6.0082 18.3337H14.9915C17.1165 18.3337 18.8415 16.6087 18.8415 14.4837V8.83373C18.8415 7.70873 18.1165 6.3254 17.1999 5.68373ZM11.1249 15.0004C11.1249 15.3421 10.8415 15.6254 10.4999 15.6254C10.1582 15.6254 9.87487 15.3421 9.87487 15.0004V12.5004C9.87487 12.1587 10.1582 11.8754 10.4999 11.8754C10.8415 11.8754 11.1249 12.1587 11.1249 12.5004V15.0004Z" fill="#00ABB9"/>
</svg>
