<svg width="21" height="20" viewBox="0 0 21 20" fill="none" xmlns="http://www.w3.org/2000/svg">
<path d="M10.4993 1.66699C8.31602 1.66699 6.54102 3.44199 6.54102 5.62533C6.54102 7.76699 8.21602 9.50033 10.3993 9.57533C10.466 9.56699 10.5327 9.56699 10.5827 9.57533C10.5993 9.57533 10.6077 9.57533 10.6243 9.57533C10.6327 9.57533 10.6327 9.57533 10.641 9.57533C12.7743 9.50033 14.4493 7.76699 14.4577 5.62533C14.4577 3.44199 12.6827 1.66699 10.4993 1.66699Z" fill="#00ABB9"/>
<path d="M14.7328 11.7914C12.4078 10.2414 8.61615 10.2414 6.27448 11.7914C5.21615 12.4997 4.63281 13.4581 4.63281 14.4831C4.63281 15.5081 5.21615 16.4581 6.26615 17.1581C7.43281 17.9414 8.96615 18.3331 10.4995 18.3331C12.0328 18.3331 13.5661 17.9414 14.7328 17.1581C15.7828 16.4497 16.3661 15.4997 16.3661 14.4664C16.3578 13.4414 15.7828 12.4914 14.7328 11.7914Z" fill="#00ABB9"/>
</svg>
