<svg width="21" height="20" viewBox="0 0 21 20" fill="none" xmlns="http://www.w3.org/2000/svg">
<path fill-rule="evenodd" clip-rule="evenodd" d="M4.73224 4.22409C7.89501 1.06578 13.0364 1.09936 16.2185 4.28148C19.402 7.46497 19.4342 12.6094 16.2718 15.7718C13.1094 18.9343 7.96494 18.902 4.78145 15.7185C2.89491 13.832 2.11587 11.2583 2.45039 8.81769C2.49727 8.47571 2.8125 8.23648 3.15448 8.28335C3.49646 8.33023 3.73569 8.64546 3.68881 8.98744C3.4055 11.0544 4.06485 13.2342 5.66533 14.8346C8.36906 17.5384 12.722 17.5539 15.3879 14.8879C18.0538 12.222 18.0383 7.8691 15.3346 5.16536C12.6323 2.46301 8.28241 2.44616 5.61612 5.10798L6.23921 5.11111C6.58438 5.11284 6.86279 5.39407 6.86106 5.73924C6.85932 6.08441 6.5781 6.36283 6.23293 6.36109L4.11163 6.35043C3.76891 6.34871 3.4915 6.0713 3.48978 5.72858L3.47912 3.60729C3.47739 3.26211 3.7558 2.98089 4.10097 2.97915C4.44615 2.97742 4.72737 3.25583 4.72911 3.601L4.73224 4.22409ZM10.4999 6.0416C10.8451 6.0416 11.1249 6.32142 11.1249 6.6666V9.74105L13.0252 11.6413C13.2693 11.8854 13.2693 12.2811 13.0252 12.5252C12.7811 12.7693 12.3854 12.7693 12.1413 12.5252L9.8749 10.2588V6.6666C9.8749 6.32142 10.1547 6.0416 10.4999 6.0416Z" fill="#00ABB9"/>
</svg>
