<svg width="20" height="20" viewBox="0 0 20 20" fill="none" xmlns="http://www.w3.org/2000/svg">
<path d="M11.85 18.0251C10.8667 18.0251 9.475 17.3334 8.375 14.0251L7.775 12.2251L5.975 11.6251C2.675 10.5251 1.98334 9.13339 1.98334 8.15006C1.98334 7.17506 2.675 5.77506 5.975 4.66673L13.05 2.30839C14.8167 1.71673 16.2917 1.89173 17.2 2.79173C18.1083 3.69173 18.2833 5.17506 17.6917 6.94173L15.3333 14.0167C14.225 17.3334 12.8333 18.0251 11.85 18.0251ZM6.36667 5.85839C4.05 6.63339 3.225 7.55006 3.225 8.15006C3.225 8.75006 4.05 9.66673 6.36667 10.4334L8.46667 11.1334C8.65 11.1917 8.8 11.3417 8.85834 11.5251L9.55834 13.6251C10.325 15.9417 11.25 16.7667 11.85 16.7667C12.45 16.7667 13.3667 15.9417 14.1417 13.6251L16.5 6.55006C16.925 5.26673 16.85 4.21673 16.3083 3.67506C15.7667 3.13339 14.7167 3.06673 13.4417 3.49173L6.36667 5.85839Z" fill="white"/>
<path d="M8.42499 12C8.26666 12 8.10833 11.9416 7.98333 11.8166C7.74166 11.575 7.74166 11.175 7.98333 10.9333L10.9667 7.94163C11.2083 7.69996 11.6083 7.69996 11.85 7.94163C12.0917 8.18329 12.0917 8.58329 11.85 8.82496L8.86666 11.8166C8.75 11.9416 8.58333 12 8.42499 12Z" fill="white"/>
</svg>
