<svg width="21" height="21" viewBox="0 0 21 21" fill="none" xmlns="http://www.w3.org/2000/svg">
<path d="M5.24967 10.9883C2.94967 10.9883 1.08301 12.8466 1.08301 15.1549C1.08301 17.4633 2.94967 19.3216 5.24967 19.3216C7.54967 19.3216 9.41634 17.4549 9.41634 15.1549C9.41634 12.8549 7.55801 10.9883 5.24967 10.9883ZM3.54967 13.4549H5.24967C5.56634 13.4549 5.81634 13.7133 5.81634 14.0216C5.81634 14.3299 5.56634 14.5883 5.24967 14.5883H3.54967C3.23301 14.5883 2.98301 14.3299 2.98301 14.0216C2.98301 13.7133 3.23301 13.4549 3.54967 13.4549ZM6.94967 16.8549H3.54967C3.23301 16.8549 2.98301 16.5966 2.98301 16.2883C2.98301 15.9799 3.24134 15.7216 3.54967 15.7216H6.95801C7.27467 15.7216 7.52467 15.9799 7.52467 16.2883C7.52467 16.5966 7.26634 16.8549 6.94967 16.8549Z" fill="#00ABB9"/>
<path d="M14.417 2.65527H6.08366C3.58366 2.65527 1.91699 3.90527 1.91699 6.82194V9.43861C1.91699 10.0469 2.54199 10.4303 3.10033 10.1886C4.01699 9.78861 5.05866 9.63861 6.15033 9.81361C8.33366 10.1719 10.117 11.8969 10.5587 14.0636C10.6837 14.6969 10.7003 15.3136 10.617 15.9053C10.5503 16.3969 10.9503 16.8303 11.442 16.8303H14.417C16.917 16.8303 18.5837 15.5803 18.5837 12.6636V6.82194C18.5837 3.90527 16.917 2.65527 14.417 2.65527ZM14.8087 7.31361L12.2003 9.39694C11.6503 9.83861 10.9503 10.0553 10.2503 10.0553C9.55033 10.0553 8.84199 9.83861 8.30033 9.39694L5.69199 7.31361C5.42533 7.09694 5.38366 6.69694 5.59199 6.43027C5.80866 6.16361 6.20033 6.11361 6.46699 6.33027L9.07533 8.41361C9.70866 8.92194 10.7837 8.92194 11.417 8.41361L14.0253 6.33027C14.292 6.11361 14.692 6.15527 14.9003 6.43027C15.117 6.69694 15.0753 7.09694 14.8087 7.31361Z" fill="#00ABB9"/>
</svg>
