<svg width="21" height="20" viewBox="0 0 21 20" fill="none" xmlns="http://www.w3.org/2000/svg">
<path d="M14.666 2.9165H6.33268C3.83268 2.9165 2.16602 4.1665 2.16602 7.08317V12.9165C2.16602 15.8332 3.83268 17.0832 6.33268 17.0832H14.666C17.166 17.0832 18.8327 15.8332 18.8327 12.9165V7.08317C18.8327 4.1665 17.166 2.9165 14.666 2.9165ZM15.0577 7.9915L12.4493 10.0748C11.8993 10.5165 11.1993 10.7332 10.4993 10.7332C9.79935 10.7332 9.09102 10.5165 8.54935 10.0748L5.94102 7.9915C5.67435 7.77484 5.63268 7.37484 5.84102 7.10817C6.05768 6.8415 6.44935 6.7915 6.71602 7.00817L9.32435 9.0915C9.95768 9.59984 11.0327 9.59984 11.666 9.0915L14.2744 7.00817C14.541 6.7915 14.941 6.83317 15.1493 7.10817C15.366 7.37484 15.3243 7.77484 15.0577 7.9915Z" fill="#00ABB9"/>
</svg>
