<svg width="33" height="33" viewBox="0 0 33 33" fill="none" xmlns="http://www.w3.org/2000/svg">
<path fill-rule="evenodd" clip-rule="evenodd" d="M16.5 0.155273C7.66344 0.155273 0.5 7.31872 0.5 16.1553C0.5 24.9918 7.66344 32.1553 16.5 32.1553C25.3366 32.1553 32.5 24.9918 32.5 16.1553C32.5 7.31872 25.3366 0.155273 16.5 0.155273ZM16.6635 8.15527H16.6642C17.0436 8.15527 17.8016 8.20842 18.6147 8.56413C19.082 8.76876 19.5021 9.04558 19.8638 9.38709C20.2951 9.79462 20.6463 10.2973 20.9078 10.8817C21.2894 11.7351 21.1986 13.1725 21.1254 14.3275L21.1225 14.3764L21.1198 14.419C21.1136 14.5178 21.1077 14.6133 21.1022 14.7065C21.1518 14.729 21.2284 14.7526 21.3375 14.7581C21.5428 14.7484 21.7819 14.6804 22.0488 14.5558C22.1735 14.4978 22.3052 14.4856 22.3942 14.4856C22.5248 14.4856 22.6531 14.5101 22.7656 14.5565C23.0988 14.6753 23.3082 14.9181 23.3135 15.1912C23.3157 15.3041 23.2815 15.4766 23.1062 15.6567C22.9594 15.8077 22.7369 15.9407 22.4256 16.0633C22.3537 16.0917 22.2674 16.119 22.1758 16.1478C21.8596 16.2479 21.3816 16.3992 21.2572 16.6916C21.1939 16.8403 21.2208 17.0353 21.3375 17.2714C21.3407 17.2777 21.3438 17.2842 21.3465 17.2908C21.389 17.3901 22.4169 19.7276 24.6984 20.1025C24.9002 20.1355 25.0444 20.315 25.0328 20.5181C25.0296 20.578 25.0152 20.6368 24.9906 20.6936C24.9086 20.8829 24.7199 21.0442 24.4133 21.186C24.0378 21.3599 23.4765 21.5058 22.7441 21.6205C22.7074 21.691 22.6679 21.8705 22.643 21.9837L22.6426 21.9857C22.6141 22.1161 22.5851 22.2449 22.5446 22.382C22.4836 22.5903 22.3238 22.7093 22.1064 22.7093H22.0964L22.0867 22.7091C21.9881 22.7091 21.8596 22.6935 21.6943 22.6611C21.441 22.6118 21.1572 22.5662 20.7989 22.5662C20.5908 22.5662 20.3754 22.5845 20.1585 22.6204C19.7406 22.6898 19.3805 22.9433 18.9635 23.2369L18.9631 23.2371L18.9622 23.238L18.9618 23.2383C18.352 23.6682 17.6611 24.1553 16.6052 24.1553C16.5595 24.1553 16.5163 24.154 16.4814 24.1524C16.4529 24.1543 16.424 24.1553 16.3952 24.1553C15.3393 24.1553 14.6482 23.6682 14.0377 23.2379C13.6206 22.9438 13.26 22.6899 12.8419 22.6204C12.6249 22.5845 12.4094 22.5662 12.2014 22.5662C11.8263 22.5662 11.5258 22.6249 11.306 22.6679L11.3009 22.6689C11.153 22.6975 11.0251 22.7222 10.9136 22.7222C10.6163 22.7222 10.5005 22.5409 10.4559 22.3891C10.4146 22.2491 10.3855 22.1172 10.3577 21.989L10.3562 21.982C10.3297 21.8616 10.292 21.6907 10.2558 21.622C9.52392 21.5075 8.96239 21.3612 8.58693 21.1873C8.27967 21.0449 8.09068 20.8834 8.00916 20.6933L8.00859 20.6923C7.98466 20.6357 7.97086 20.5772 7.96741 20.5186C7.95618 20.315 8.10014 20.1359 8.30174 20.103C8.81511 20.0186 9.30508 19.8279 9.75789 19.536C10.1289 19.297 10.478 18.9892 10.7949 18.6209C11.3527 17.9732 11.6246 17.359 11.6538 17.2911C11.6566 17.2845 11.6596 17.2782 11.6627 17.2718C11.7793 17.0358 11.8065 16.8405 11.7433 16.6921C11.6187 16.3997 11.1413 16.2484 10.8253 16.1483L10.8243 16.1479L10.8231 16.1476C10.7324 16.1189 10.6469 16.0918 10.5748 16.0635C10.2987 15.9547 10.0848 15.8324 9.93919 15.6997C9.67448 15.4588 9.67337 15.2212 9.69628 15.1009C9.73105 14.9192 9.85905 14.7553 10.0571 14.6393C10.2146 14.547 10.3961 14.4965 10.5683 14.4965C10.6755 14.4965 10.7726 14.5164 10.8577 14.5559C11.1469 14.6911 11.4027 14.7596 11.6179 14.7596C11.7516 14.7596 11.8423 14.7326 11.8982 14.707C11.8915 14.5931 11.8841 14.4766 11.877 14.3638L11.8748 14.3285L11.8745 14.3267L11.8745 14.3263C11.8018 13.1721 11.7113 11.736 12.0927 10.8834C12.3531 10.301 12.703 9.79965 13.1326 9.393C13.4929 9.05171 13.9116 8.77484 14.3772 8.57008C15.1914 8.21172 15.9495 8.15836 16.3284 8.15836L16.6217 8.15545C16.6349 8.15527 16.6487 8.15527 16.6635 8.15527Z" fill="#00ABB9"/>
</svg>
