<svg width="33" height="32" viewBox="0 0 33 32" fill="none" xmlns="http://www.w3.org/2000/svg">
<path d="M24.0471 30.2264C23.3405 30.2264 22.4338 29.9998 21.3005 29.3331L17.3138 26.9731C16.9005 26.7331 16.1005 26.7331 15.7005 26.9731L11.7005 29.3331C9.34048 30.7331 7.95382 30.1731 7.32715 29.7198C6.71382 29.2664 5.75382 28.1064 6.38048 25.4398L7.32715 21.3464C7.43382 20.9198 7.22048 20.1864 6.90048 19.8664L3.59382 16.5598C1.94048 14.9064 2.07382 13.4931 2.30048 12.7998C2.52715 12.1064 3.24715 10.8798 5.54048 10.4931L9.79382 9.78643C10.1938 9.71977 10.7671 9.2931 10.9405 8.9331L13.3005 4.22643C14.3671 2.07977 15.7671 1.75977 16.5005 1.75977C17.2338 1.75977 18.6338 2.07977 19.7005 4.22643L22.0471 8.91977C22.2338 9.27977 22.8071 9.70643 23.2071 9.7731L27.4605 10.4798C29.7671 10.8664 30.4871 12.0931 30.7005 12.7864C30.9138 13.4798 31.0471 14.8931 29.4071 16.5464L26.1005 19.8664C25.7805 20.1864 25.5805 20.9064 25.6738 21.3464L26.6205 25.4398C27.2338 28.1064 26.2871 29.2664 25.6738 29.7198C25.3405 29.9598 24.8071 30.2264 24.0471 30.2264ZM16.5005 24.7864C17.1538 24.7864 17.8071 24.9464 18.3271 25.2531L22.3138 27.6131C23.4738 28.3064 24.2071 28.3064 24.4871 28.1064C24.7671 27.9064 24.9671 27.1998 24.6738 25.8931L23.7271 21.7998C23.4738 20.6931 23.8871 19.2664 24.6871 18.4531L27.9938 15.1464C28.6472 14.4931 28.9405 13.8531 28.8071 13.4131C28.6605 12.9731 28.0471 12.6131 27.1405 12.4664L22.8871 11.7598C21.8605 11.5864 20.7405 10.7598 20.2738 9.82643L17.9271 5.1331C17.5005 4.27977 16.9671 3.7731 16.5005 3.7731C16.0338 3.7731 15.5005 4.27977 15.0871 5.1331L12.7271 9.82643C12.2605 10.7598 11.1405 11.5864 10.1138 11.7598L5.87382 12.4664C4.96715 12.6131 4.35382 12.9731 4.20715 13.4131C4.06048 13.8531 4.36715 14.5064 5.02048 15.1464L8.32715 18.4531C9.12715 19.2531 9.54048 20.6931 9.28715 21.7998L8.34048 25.8931C8.03382 27.2131 8.24715 27.9064 8.52715 28.1064C8.80715 28.3064 9.52715 28.2931 10.7005 27.6131L14.6872 25.2531C15.1938 24.9464 15.8471 24.7864 16.5005 24.7864Z" fill="#F38193"/>
</svg>
