<svg width="33" height="33" viewBox="0 0 33 33" fill="none" xmlns="http://www.w3.org/2000/svg">
<path fill-rule="evenodd" clip-rule="evenodd" d="M16.5 0.155273C7.66344 0.155273 0.5 7.31872 0.5 16.1553C0.5 24.9918 7.66344 32.1553 16.5 32.1553C25.3366 32.1553 32.5 24.9918 32.5 16.1553C32.5 7.31872 25.3366 0.155273 16.5 0.155273ZM16.0544 13.7142L16.0208 13.1605C15.9201 11.7256 16.8042 10.415 18.2032 9.90651C18.718 9.72573 19.5909 9.70313 20.1617 9.86132C20.3856 9.92911 20.8108 10.1551 21.113 10.3585L21.6614 10.7313L22.2658 10.5392C22.6015 10.4375 23.0492 10.2681 23.2506 10.1551C23.4409 10.0534 23.6088 9.9969 23.6088 10.0308C23.6088 10.2229 23.1947 10.8782 22.8477 11.2398C22.3777 11.7482 22.512 11.7934 23.4633 11.4544C24.034 11.2624 24.0452 11.2624 23.9333 11.477C23.8662 11.59 23.5192 11.9855 23.1499 12.347C22.5232 12.9685 22.4896 13.0362 22.4896 13.556C22.4896 14.3582 22.1091 16.0304 21.7286 16.9456C21.0235 18.663 19.5126 20.4369 18.0017 21.3295C15.8753 22.5836 13.0438 22.9 10.66 22.1656C9.86538 21.917 8.5 21.2843 8.5 21.1713C8.5 21.1374 8.91409 21.0922 9.41772 21.0809C10.4697 21.0583 11.5218 20.7646 12.4171 20.2448L13.0214 19.8833L12.3276 19.646C11.3427 19.307 10.4585 18.5274 10.2347 17.793C10.1676 17.5557 10.1899 17.5444 10.8167 17.5444L11.4658 17.5331L10.9174 17.2733C10.2683 16.9456 9.67513 16.392 9.38414 15.827C9.1715 15.4203 8.9029 14.3921 8.98124 14.313C9.00362 14.2791 9.23865 14.3469 9.50725 14.4373C10.2795 14.7198 10.3802 14.652 9.93253 14.1774C9.09316 13.3187 8.83575 12.042 9.23865 10.833L9.42891 10.2907L10.1676 11.0251C11.6784 12.5052 13.4579 13.3865 15.4948 13.6464L16.0544 13.7142Z" fill="#00ABB9"/>
</svg>
