<svg width="78" height="78" viewBox="0 0 78 78" fill="none" xmlns="http://www.w3.org/2000/svg">
<g filter="url(#filter0_d_17332_15079)">
<rect x="13" y="9" width="52" height="52" rx="26" fill="#F38193" shape-rendering="crispEdges"/>
<g clip-path="url(#clip0_17332_15079)">
<path d="M40.8858 48.0004C37.1125 47.7569 34.1972 46.3041 32.1973 43.2472C32.0737 43.0257 31.8997 42.8356 31.6892 42.6919C31.4786 42.5481 31.2372 42.4546 30.9839 42.4187C28.5988 41.9828 26.9823 40.1314 27.0001 37.9797C27.02 35.7651 28.5631 34.0393 31.0038 33.5622C31.401 33.4857 31.6492 33.3659 31.8518 33.0164C32.6919 31.4847 33.9247 30.1982 35.4265 29.2862C36.1434 28.8621 35.7244 28.3536 35.6707 27.9217C35.3232 25.1181 36.9914 22.7111 39.7657 22.1142C43.3007 21.3564 46.5854 24.4879 45.8963 28.0041C45.7593 28.707 45.8705 29.0761 46.4921 29.5198C50.168 32.1545 51.6952 35.7572 50.7082 40.1216C49.7947 44.166 47.0601 46.6653 42.9929 47.6862C42.262 47.8786 41.4975 47.9159 40.8858 48.0004ZM47.6519 43.6811C51.1014 40.1746 50.4044 33.8371 46.365 30.737C45.6322 30.1736 45.2608 30.0519 44.6372 30.953C42.4527 34.0943 39.0508 34.0197 36.8543 30.8607C36.8323 30.8365 36.8136 30.8094 36.7987 30.7802C36.4651 29.9714 36.0044 30.1186 35.4443 30.5682C34.5654 31.2595 33.7886 32.069 33.1367 32.9732C32.813 33.4228 32.7196 33.6683 33.375 33.9549C35.1921 34.7618 36.0361 36.2363 36.0481 38.1642C36.0327 38.4049 36.0817 38.6454 36.1901 38.8615C36.2985 39.0776 36.4625 39.2616 36.6657 39.3952C38.7172 40.8853 40.9712 41.0699 43.3622 40.5025C44.7186 40.1805 45.9181 40.3729 46.8476 41.5077C47.346 42.1144 47.4989 42.8467 47.6539 43.6791L47.6519 43.6811ZM40.5541 46.8695C42.4348 46.8204 44.0752 46.522 45.4654 45.4461C46.7324 44.4644 46.8078 42.6975 45.6183 41.816C44.8457 41.2466 43.9739 41.4724 43.1418 41.655C40.6256 42.2066 38.2902 41.8297 36.1652 40.367C35.7978 40.1138 35.5516 39.9469 35.2676 40.475C34.8936 41.1399 34.3038 41.6607 33.5934 41.9534C32.9242 42.2459 32.9977 42.5718 33.3611 43.0626C35.1981 45.503 37.6646 46.7379 40.5541 46.8695ZM44.8557 27.5801C44.8735 25.4558 43.9421 24.0363 42.3872 23.4159C40.6991 22.7425 39.0111 23.1175 37.7738 24.4231C35.1921 27.1206 37.7877 31.5813 40.157 32.0996C40.5444 32.1923 40.9475 32.2018 41.339 32.1277C41.7306 32.0535 42.1015 31.8973 42.4269 31.6696C43.1148 31.2104 43.69 30.6047 44.1103 29.8971C44.5306 29.1894 44.7853 28.3977 44.8557 27.5801ZM34.926 38.0091C34.937 37.5682 34.8579 37.1297 34.6936 36.7197C34.5292 36.3097 34.283 35.9367 33.9695 35.6229C33.656 35.3092 33.2817 35.0611 32.8691 34.8936C32.4564 34.7261 32.0139 34.6425 31.5678 34.6479C31.1223 34.6354 30.6789 34.711 30.2634 34.8705C29.848 35.0299 29.4691 35.27 29.1489 35.5764C28.8288 35.8828 28.5739 36.2495 28.3992 36.6548C28.2246 37.0602 28.1338 37.4959 28.1321 37.9365C28.1277 38.3856 28.2132 38.8311 28.3838 39.2474C28.5544 39.6637 28.8066 40.0424 29.126 40.3618C29.4454 40.6813 29.8256 40.935 30.2447 41.1084C30.6638 41.2818 31.1135 41.3715 31.5678 41.3722C32.0134 41.3744 32.4549 41.2886 32.8665 41.1199C33.2781 40.9512 33.6516 40.7029 33.9649 40.3897C34.2782 40.0765 34.5251 39.7046 34.6912 39.2958C34.8572 38.887 34.9391 38.4496 34.932 38.0091H34.926Z" fill="white"/>
</g>
</g>
<defs>
<filter id="filter0_d_17332_15079" x="0.9" y="0.9" width="76.2" height="76.2" filterUnits="userSpaceOnUse" color-interpolation-filters="sRGB">
<feFlood flood-opacity="0" result="BackgroundImageFix"/>
<feColorMatrix in="SourceAlpha" type="matrix" values="0 0 0 0 0 0 0 0 0 0 0 0 0 0 0 0 0 0 127 0" result="hardAlpha"/>
<feOffset dy="4"/>
<feGaussianBlur stdDeviation="6.05"/>
<feComposite in2="hardAlpha" operator="out"/>
<feColorMatrix type="matrix" values="0 0 0 0 0.952941 0 0 0 0 0.505882 0 0 0 0 0.576471 0 0 0 0.54 0"/>
<feBlend mode="normal" in2="BackgroundImageFix" result="effect1_dropShadow_17332_15079"/>
<feBlend mode="normal" in="SourceGraphic" in2="effect1_dropShadow_17332_15079" result="shape"/>
</filter>
<clipPath id="clip0_17332_15079">
<rect width="24" height="26" fill="white" transform="translate(27 22)"/>
</clipPath>
</defs>
</svg>
