<svg width="21" height="20" viewBox="0 0 21 20" fill="none" xmlns="http://www.w3.org/2000/svg">
<path d="M14.666 18.958H6.33268C3.46602 18.958 1.54102 17.033 1.54102 14.1663V9.99967C1.54102 7.43301 3.12435 5.57468 5.58268 5.26635C5.81602 5.23301 6.07435 5.20801 6.33268 5.20801H14.666C14.866 5.20801 15.1244 5.21634 15.391 5.25801C17.8493 5.54134 19.4577 7.40801 19.4577 9.99967V14.1663C19.4577 17.033 17.5327 18.958 14.666 18.958ZM6.33268 6.45801C6.13268 6.45801 5.94102 6.47466 5.74935 6.49966C3.91602 6.733 2.79102 8.06634 2.79102 9.99967V14.1663C2.79102 16.3163 4.18268 17.708 6.33268 17.708H14.666C16.816 17.708 18.2077 16.3163 18.2077 14.1663V9.99967C18.2077 8.04967 17.066 6.70801 15.216 6.49135C15.016 6.45801 14.841 6.45801 14.666 6.45801H6.33268Z" fill="#969595"/>
<path d="M5.65805 6.50853C5.45805 6.50853 5.27471 6.41687 5.14971 6.2502C5.00805 6.05854 4.99138 5.80854 5.09971 5.6002C5.24138 5.31687 5.44138 5.04187 5.69971 4.79187L8.40805 2.0752C9.79138 0.700195 12.0414 0.700195 13.4247 2.0752L14.883 3.55021C15.4997 4.15854 15.8747 4.97521 15.9164 5.84188C15.9247 6.03355 15.8497 6.21686 15.708 6.34186C15.5664 6.46686 15.3747 6.52521 15.1914 6.49188C15.0247 6.46688 14.8497 6.45854 14.6664 6.45854H6.33305C6.13305 6.45854 5.94138 6.47519 5.74971 6.50019C5.72471 6.50853 5.69138 6.50853 5.65805 6.50853ZM7.04971 5.20854H14.5164C14.408 4.9252 14.233 4.66688 13.9997 4.43354L12.533 2.95021C11.6414 2.06688 10.183 2.06688 9.28305 2.95021L7.04971 5.20854Z" fill="#969595"/>
<path d="M18.8327 14.3753H16.3327C15.066 14.3753 14.041 13.3503 14.041 12.0837C14.041 10.817 15.066 9.79199 16.3327 9.79199H18.8327C19.1743 9.79199 19.4577 10.0753 19.4577 10.417C19.4577 10.7587 19.1743 11.042 18.8327 11.042H16.3327C15.7577 11.042 15.291 11.5087 15.291 12.0837C15.291 12.6587 15.7577 13.1253 16.3327 13.1253H18.8327C19.1743 13.1253 19.4577 13.4087 19.4577 13.7503C19.4577 14.092 19.1743 14.3753 18.8327 14.3753Z" fill="#969595"/>
</svg>
