<svg width="21" height="20" viewBox="0 0 21 20" fill="none" xmlns="http://www.w3.org/2000/svg">
<path d="M10.6322 9.68366C10.6072 9.68366 10.5905 9.68366 10.5655 9.68366C10.5238 9.67533 10.4655 9.67533 10.4155 9.68366C7.99883 9.60866 6.17383 7.70866 6.17383 5.36699C6.17383 2.98366 8.11549 1.04199 10.4988 1.04199C12.8822 1.04199 14.8238 2.98366 14.8238 5.36699C14.8155 7.70866 12.9822 9.60866 10.6572 9.68366C10.6488 9.68366 10.6405 9.68366 10.6322 9.68366ZM10.4988 2.29199C8.80716 2.29199 7.42383 3.67533 7.42383 5.36699C7.42383 7.03366 8.72383 8.37533 10.3822 8.43366C10.4238 8.42533 10.5405 8.42533 10.6488 8.43366C12.2822 8.35866 13.5655 7.01699 13.5738 5.36699C13.5738 3.67533 12.1905 2.29199 10.4988 2.29199Z" fill="#969595"/>
<path d="M10.6404 18.7913C9.00703 18.7913 7.36536 18.3747 6.1237 17.5413C4.96536 16.7747 4.33203 15.7247 4.33203 14.583C4.33203 13.4413 4.96536 12.383 6.1237 11.608C8.6237 9.94967 12.6737 9.94967 15.157 11.608C16.307 12.3747 16.9487 13.4247 16.9487 14.5663C16.9487 15.708 16.3154 16.7663 15.157 17.5413C13.907 18.3747 12.2737 18.7913 10.6404 18.7913ZM6.81536 12.658C6.01536 13.1913 5.58203 13.8747 5.58203 14.5913C5.58203 15.2997 6.0237 15.983 6.81536 16.508C8.89036 17.8997 12.3904 17.8997 14.4654 16.508C15.2654 15.9747 15.6987 15.2913 15.6987 14.5747C15.6987 13.8663 15.257 13.183 14.4654 12.658C12.3904 11.2747 8.89036 11.2747 6.81536 12.658Z" fill="#969595"/>
</svg>
