<svg width="21" height="20" viewBox="0 0 21 20" fill="none" xmlns="http://www.w3.org/2000/svg">
<path d="M15.3244 18.9586H5.67435C3.39102 18.9586 1.54102 17.1003 1.54102 14.817V8.64197C1.54102 7.50864 2.24102 6.08364 3.14102 5.38364L7.63268 1.88364C8.98268 0.833637 11.141 0.783637 12.541 1.76697L17.691 5.3753C18.6827 6.06697 19.4577 7.5503 19.4577 8.75864V14.8253C19.4577 17.1003 17.6077 18.9586 15.3244 18.9586ZM8.39935 2.86697L3.90768 6.36697C3.31602 6.83364 2.79102 7.89197 2.79102 8.64197V14.817C2.79102 16.4086 4.08268 17.7086 5.67435 17.7086H15.3244C16.916 17.7086 18.2077 16.417 18.2077 14.8253V8.75864C18.2077 7.95864 17.6327 6.8503 16.9743 6.4003L11.8243 2.79197C10.8743 2.1253 9.30768 2.15864 8.39935 2.86697Z" fill="#969595"/>
<path d="M10.5 15.625C10.1583 15.625 9.875 15.3417 9.875 15V12.5C9.875 12.1583 10.1583 11.875 10.5 11.875C10.8417 11.875 11.125 12.1583 11.125 12.5V15C11.125 15.3417 10.8417 15.625 10.5 15.625Z" fill="#969595"/>
</svg>
