<svg width="24" height="8" viewBox="0 0 24 8" fill="none" xmlns="http://www.w3.org/2000/svg">
<path fill-rule="evenodd" clip-rule="evenodd" d="M12.4053 2.62553C12.4053 0.992038 13.9281 0.10791 15.6322 0.10791C16.7236 0.10791 17.4975 0.442091 17.4975 0.442091L17.1533 2.03414C17.1533 2.03414 16.4421 1.67368 15.5703 1.67368C14.7977 1.67368 14.4253 2.01379 14.4253 2.3242C14.4253 2.67285 14.8574 2.90234 15.3766 3.17812C16.1582 3.59328 17.1374 4.11334 17.1374 5.30273C17.1374 6.96416 15.6713 7.89169 13.8082 7.89169C12.5512 7.89169 11.6044 7.47303 11.6044 7.47303L11.9561 5.82466C11.9561 5.82466 12.778 6.32029 13.8776 6.32029C14.6525 6.32029 15.1061 5.96558 15.1061 5.56933C15.1061 5.17897 14.6415 4.92827 14.0976 4.63484C13.3303 4.22085 12.4053 3.72181 12.4053 2.62553ZM20.789 0.228212C20.3198 0.228212 20.0711 0.479676 19.8887 0.919102L17.0378 7.76793H19.0785L19.4733 6.62646H21.9594L22.1994 7.76793H24L22.4292 0.228212H20.789ZM21.0546 2.26537L21.6594 5.09465H20.0389L21.0546 2.26537ZM9.93569 0.227631L8.33488 7.76735H10.2808L11.876 0.227631H9.93569ZM0 0.467941L0.0412629 0.227631H3.29447C3.76425 0.227631 4.14805 0.511323 4.22382 1.00864L5.05002 5.35393L7.07471 0.227631H9.11535L5.96436 7.76735H3.91904L2.39325 1.87976C2.25323 1.33657 2.194 1.16168 1.36261 0.861261C0.716915 0.599276 0 0.467941 0 0.467941Z" fill="#1434CB"/>
</svg>
