<svg width="20" height="21" viewBox="0 0 20 21" fill="none" xmlns="http://www.w3.org/2000/svg">
<path d="M18.3162 9.66332C18.0329 4.82999 13.6413 1.105 8.58292 1.93833C5.09959 2.51333 2.30793 5.33831 1.76626 8.82165C1.44959 10.8383 1.86628 12.7467 2.77461 14.3217L2.03293 17.08C1.86627 17.705 2.44125 18.2717 3.05792 18.0966L5.77459 17.3467C7.00792 18.0717 8.44959 18.4883 9.99125 18.4883C14.6913 18.4883 18.5912 14.3467 18.3162 9.66332ZM14.0663 13.255C13.9913 13.405 13.8996 13.5467 13.7829 13.68C13.5746 13.905 13.3496 14.0717 13.0996 14.1717C12.8496 14.28 12.5746 14.33 12.2829 14.33C11.8579 14.33 11.3996 14.23 10.9246 14.0217C10.4413 13.8133 9.96628 13.5383 9.49128 13.1966C9.00794 12.8466 8.55793 12.455 8.1246 12.03C7.69126 11.5967 7.30791 11.1383 6.95791 10.6633C6.61624 10.1883 6.34126 9.71331 6.14126 9.23831C5.94126 8.76331 5.84127 8.30499 5.84127 7.87166C5.84127 7.58833 5.89127 7.31333 5.99127 7.06333C6.09127 6.80499 6.24961 6.57166 6.47461 6.36333C6.74128 6.09666 7.03293 5.97166 7.34126 5.97166C7.45793 5.97166 7.57457 5.99666 7.68291 6.04666C7.79124 6.09666 7.89126 6.17166 7.96626 6.27999L8.93291 7.64664C9.00791 7.75498 9.06625 7.84665 9.09958 7.93832C9.14125 8.02998 9.15792 8.11331 9.15792 8.19665C9.15792 8.29665 9.1246 8.39666 9.06627 8.49666C9.00793 8.59666 8.93291 8.69665 8.83291 8.79665L8.51624 9.12998C8.46624 9.17998 8.44961 9.22999 8.44961 9.29665C8.44961 9.32999 8.45791 9.36332 8.46624 9.39665C8.48291 9.42998 8.49127 9.45499 8.49961 9.47999C8.57461 9.62165 8.70792 9.79664 8.89125 10.0133C9.08292 10.23 9.28295 10.455 9.49962 10.6716C9.72462 10.8966 9.94127 11.0966 10.1663 11.2883C10.3829 11.4716 10.5662 11.5967 10.7079 11.6717C10.7329 11.68 10.7579 11.6966 10.7829 11.705C10.8163 11.7216 10.8496 11.7217 10.8913 11.7217C10.9663 11.7217 11.0163 11.6967 11.0663 11.6467L11.3829 11.33C11.4912 11.2217 11.5913 11.1467 11.6829 11.0967C11.7829 11.0383 11.8746 11.005 11.9829 11.005C12.0663 11.005 12.1496 11.0216 12.2413 11.0633C12.3329 11.105 12.4329 11.155 12.5329 11.23L13.9163 12.2133C14.0246 12.2883 14.0996 12.38 14.1496 12.48C14.1912 12.5883 14.2163 12.6883 14.2163 12.805C14.1663 12.9466 14.1329 13.105 14.0663 13.255Z" fill="white"/>
</svg>
