<svg width="33" height="33" viewBox="0 0 33 33" fill="none" xmlns="http://www.w3.org/2000/svg">
<path fill-rule="evenodd" clip-rule="evenodd" d="M16.5 0.155273C7.66344 0.155273 0.5 7.31872 0.5 16.1553C0.5 24.9918 7.66344 32.1553 16.5 32.1553C25.3366 32.1553 32.5 24.9918 32.5 16.1553C32.5 7.31872 25.3366 0.155273 16.5 0.155273ZM23.1672 10.655C23.9016 10.8565 24.4799 11.4502 24.6762 12.2042C25.0328 13.5708 25.0328 16.4221 25.0328 16.4221C25.0328 16.4221 25.0328 19.2733 24.6762 20.6399C24.4799 21.3939 23.9016 21.9877 23.1672 22.1893C21.8364 22.5554 16.4995 22.5554 16.4995 22.5554C16.4995 22.5554 11.1626 22.5554 9.83165 22.1893C9.0973 21.9877 8.51897 21.3939 8.3227 20.6399C7.96615 19.2733 7.96615 16.4221 7.96615 16.4221C7.96615 16.4221 7.96615 13.5708 8.3227 12.2042C8.51897 11.4502 9.0973 10.8565 9.83165 10.655C11.1626 10.2887 16.4995 10.2887 16.4995 10.2887C16.4995 10.2887 21.8364 10.2887 23.1672 10.655Z" fill="#00ABB9"/>
<path d="M14.8994 19.3548V14.0215L19.1661 16.6883L14.8994 19.3548Z" fill="#00ABB9"/>
</svg>
